<svg xmlns="http://www.w3.org/2000/svg" width="1024" height="1023" viewBox="448 63 1024 1023"><path fill="#fff" d="M942 198c3.04 1.55 3.04 1.55 6.07 3.54 1.13.73 2.27 1.46 3.41 2.19.58.37 1.16.75 1.76 1.14 2.85 1.83 5.76 3.57 8.66 5.31 1.17.71 2.33 1.41 3.49 2.11l1.76 1.07c9.08 5.49 18.15 10.99 26.99 16.88 2.19 1.35 4.3 2.49 6.6 3.61 4.93 2.41 9.51 5.32 14.14 8.27.85.54 1.7 1.08 2.58 1.63 6.27 3.98 6.27 3.98 8.54 6.25.39 2.09.39 2.09.6 4.71.11 1.47.11 1.47.23 2.97.08 1.07.15 2.14.23 3.25s.16 2.22.25 3.37c.9 12.62 1.34 25.25 1.75 37.89.16 4.57.31 9.15.48 13.73.03 1.08.07 2.16.11 3.28.24 6.58.61 13.13 1.13 19.69.5 7 .62 14.01.83 21.02.03 1.15.07 2.3.11 3.48l.09 3.13c.03 2.48.03 2.48 1.19 4.48l6.81-11.19c.65-1.05 1.29-2.11 1.95-3.19.62-1.03 1.24-2.05 1.88-3.1l1.73-2.84q1.665-2.73 3.21-5.52c.47-.72.94-1.43 1.42-2.16h2l1-5h2c.12-.58.25-1.15.38-1.75.63-2.27 1.51-4.18 2.62-6.25h2q.405-1.14.81-2.31c1.85-4.17 3.27-5.33 7.59-7.02 1.42-.46 2.83-.9 4.25-1.34.76-.25 1.52-.49 2.3-.74 2.48-.79 4.95-1.56 7.43-2.34l5.07-1.62 9.99-3.18c5.71-1.81 11.39-3.68 17.06-5.57 1.22-.41 1.22-.41 2.47-.82 2.98-1 5.9-2.01 8.8-3.21 3.7-1.41 6.29-1.3 10.23-.85 2.55 3.44 3.99 7.24 5.49 11.23.45 1.21.91 2.41 1.38 3.66.48 1.28.96 2.57 1.44 3.86.5 1.33 1 2.65 1.5 3.98 2.75 7.32 5.43 14.67 7.98 22.06 2.47 7.12 5.26 14.11 8.05 21.11 1.71 4.3 3.39 8.61 4.93 12.98.24.67.48 1.35.73 2.05 1.13 4.67.44 7.8-1.66 12.07-1.94 4.09-3.8 8.2-5.56 12.38-.46 1.08-.91 2.17-1.39 3.29-.46 1.1-.92 2.2-1.39 3.33-2.98 7.11-6.02 14.18-9.24 21.2-2.35 5.22-4.55 10.51-6.76 15.8-5.13 12.25-5.13 12.25-7.91 18.28-3.36 7.34-6.46 14.78-9.59 22.22-4.38 10.4-8.83 20.74-13.62 30.95-.41.93-.83 1.85-1.26 2.8-.64 1.4-.64 1.4-1.3 2.83-1.73 6.15.46 11.09 3.18 16.61.63 1.31 1.27 2.62 1.9 3.93.34.7.68 1.4 1.02 2.12 2.39 5.01 4.61 10.1 6.86 15.18 2.28 5.11 4.68 10.09 7.54 14.91 1.11 3.54.83 5.65-.32 9.17-2.55 1.96-5.38 3-8.38 4.12-1.54.63-3.09 1.26-4.64 1.89-.81.32-1.62.64-2.46.96-3.56 1.45-7.05 3.07-10.55 4.68-5.6 2.55-11.26 4.97-16.91 7.41l-3.93 1.71c-6.59 2.85-13.18 5.68-19.79 8.5-14.5 6.15-14.5 6.15-28.84 12.67-1.67.78-1.67.78-3.38 1.59-2.14 1.01-4.29 2.02-6.43 3.04-1.05.47-2.11.94-3.19 1.43-.9.41-1.79.83-2.72 1.25-5.42 1.46-11.02-.47-16.34-1.84l-3.67-.94c-2.51-.65-5.03-1.29-7.54-1.94l-3.67-.94-3.31-.85c-5.17-1.18-9.78-2.21-15-.88-.85.2-1.7.41-2.57.63-.89.23-1.77.46-2.68.7-1.38.34-1.38.34-2.79.69-4.26 1.07-8.5 2.19-12.74 3.35-.68.18-1.35.36-2.05.55-1.8.5-3.59 1.01-5.39 1.52-4.75 1.1-6.85 1.37-11.2-1.1-1.2-.83-2.39-1.67-3.58-2.51-1.33-.92-2.67-1.84-4-2.76-.69-.48-1.39-.96-2.1-1.46-3.59-2.46-7.24-4.81-10.9-7.16-1.07-.69-1.07-.69-2.16-1.39-1.39-.89-2.77-1.78-4.16-2.67-1.77-1.15-3.54-2.31-5.31-3.46-.97-.64-1.94-1.27-2.93-1.91l-2.49-1.64c-4.15-2.34-8.4-2.51-13.11-2.92-.67-.06-1.34-.12-2.04-.18-1.44-.13-2.88-.26-4.32-.38l-6.72-.6c-5.49-.49-10.97-.98-16.45-1.46-2.79-.25-5.58-.5-8.37-.76-1.19-.1-1.19-.1-2.4-.21-7.4-.7-7.4-.7-9.79-2.73-1.7-5.12-.5-9.56.75-14.62.18-.8.37-1.59.56-2.4q1.95-8.28 4.17-16.5c.55-2.61.75-4.83.52-7.48-1.94-2.19-1.94-2.19-4-4v-2h-2c-3-3.46-3-3.46-3-6h-2c-1.91-2.08-1.91-2.08-4.06-4.81-1.07-1.34-1.07-1.34-2.16-2.71C814 540 814 540 813 537h-2c-1.61-1.73-3.14-3.54-4.62-5.38-1.23-1.49-1.23-1.49-2.48-3.02-1.9-2.6-1.9-2.6-1.9-4.6h-2c-3-3.46-3-3.46-3-6h-2c-1.91-2.08-1.91-2.08-4.06-4.81-1.07-1.34-1.07-1.34-2.16-2.71C787 508 787 508 786 505h-2c-1.5-1.65-2.92-3.38-4.31-5.12-1.2-1.51-1.2-1.51-2.42-3.04-.75-.94-1.5-1.87-2.27-2.84-1.02-1.19-2.04-2.38-3.06-3.56C770 488 770 488 770 486h-2c-2.35-2.56-4.45-5.27-6.6-8-2.29-2.94-2.29-2.94-4.55-5.28-3.74-4.09-5.23-6.86-5.09-12.47.03-1.15.06-2.3.08-3.49.29-6.8.63-13.59 1.04-20.38l.27-4.7c.18-3.24.37-6.49.56-9.73.29-4.94.56-9.87.83-14.8.13-2.37.26-4.74.4-7.11l.24-4.53c1.13-20.82 1.13-20.82 3.82-23.51 2.31-.56 2.31-.56 5.22-1 1.08-.17 2.17-.33 3.28-.5 5.98-.85 11.95-1.66 17.94-2.44 10.92-1.42 10.92-1.42 21.83-2.99.94-.14 1.87-.28 2.84-.42 1.69-.26 3.38-.52 5.07-.79 2.27-.34 4.53-.62 6.82-.86.86-.09 1.72-.19 2.6-.28 4.71-.29 6.67-.3 10.47 2.74.86 1.09 1.69 2.21 2.49 3.35.45.59.9 1.17 1.36 1.77.92 1.2 1.84 2.41 2.74 3.63 2.06 2.75 4.3 5.35 6.53 7.98 3.81 4.56 3.81 4.56 3.81 6.81h2c1.44 1.61 2.8 3.29 4.12 5 .73.93 1.45 1.86 2.2 2.81q.825 1.08 1.68 2.19l.03-3.42q.06-6.3.18-12.6c.03-1.81.05-3.63.06-5.44.02-2.61.07-5.23.12-7.84v-2.45c.09-3.45.34-5.83 2.2-8.77 3.32-2.04 5.7-1.93 9.58-1.87l2.07.02c2.17.02 4.34.07 6.51.12 1.48.02 2.95.04 4.43.05 3.6.05 7.21.12 10.82.2-.41-1.62-.41-1.62-.82-3.28-1.27-5.05-2.54-10.1-3.8-15.16-.23-.91-.46-1.82-.7-2.76-2.99-11.93-5.92-23.88-8.76-35.85-2.03-8.49-4.2-16.95-6.61-25.35-2.55-9.24-2.55-9.24-1.31-13.6 2.32-3.37 4.91-6.32 8-9h2l.65-1.62c1.85-3.26 4.35-5.81 6.91-8.5 3.63-3.64 3.63-3.64 6.44-7.88h2c.26-.57.52-1.14.78-1.73 1.33-2.48 2.87-4.4 4.72-6.52.61-.71 1.22-1.41 1.84-2.14C911 222 911 222 913 222l.65-1.62c1.85-3.26 4.35-5.81 6.91-8.5 3.63-3.64 3.63-3.64 6.44-7.88h2c.25-.6.5-1.2.75-1.81 3.2-5.61 6.23-5.47 12.25-4.19m-6 13-2 4h-2c-1.5 1.45-1.5 1.45-3.06 3.38-2.73 3.2-5.49 6.37-8.32 9.5-.74.83-1.49 1.66-2.26 2.52-1.64 1.8-3.28 3.6-4.93 5.39-.83.89-1.65 1.79-2.49 2.71-.76.81-1.51 1.63-2.29 2.47-1.86 1.85-1.86 1.85-1.65 4.03h-2v2h-2c-1.58 1.48-1.58 1.48-3.12 3.38-.54.62-1.08 1.25-1.64 1.89-1.43 1.65-1.43 1.65-1.24 3.73h-2c-1.77 1.72-1.77 1.72-3.56 3.88-.62.71-1.24 1.43-1.88 2.17-1.61 1.87-1.61 1.87-2.56 3.95l2.1.7c31.4 10.47 31.4 10.47 34.47 11.49 1.99.66 3.97 1.32 5.95 1.98 4.64 1.55 9.27 3.1 13.91 4.66.83.28 1.67.57 2.54.86 1.56.52 3.12 1.05 4.68 1.58 3.59 1.29 3.59 1.29 7.35 1.73-.66-5.73-2.05-11.04-3.69-16.56-.55-1.88-1.09-3.76-1.64-5.64-.42-1.44-.42-1.44-.84-2.92-1.31-4.55-2.54-9.12-3.77-13.69-2.2-8.13-4.47-16.23-6.81-24.31-.29-1.03-.59-2.06-.89-3.11-.28-.96-.56-1.92-.84-2.9-.25-.85-.49-1.69-.75-2.56-.74-2.23-1.66-4.24-2.77-6.31m7 2c1.42 5.95 2.91 11.85 4.75 17.69 3 9.56 5.61 19.23 8.3 28.88q2.43 8.745 4.89 17.49l1.77 6.35c.25.89.5 1.78.76 2.69.17.63.35 1.25.53 1.9 3.28 0 3.83-.33 6.38-2.17q.99-.705 2.01-1.44c.72-.52 1.44-1.04 2.17-1.58.75-.53 1.5-1.07 2.26-1.62 2.4-1.72 4.79-3.46 7.18-5.19 1.58-1.14 3.16-2.27 4.74-3.41 8.11-5.84 16.19-11.71 24.26-17.59-2.4-2.61-5.01-4.42-8-6.31-.87-.56-1.73-1.11-2.62-1.68-2.77-1.65-5.56-3.2-8.4-4.72-6.09-3.3-12.01-6.88-17.92-10.5-1.84-1.12-3.69-2.25-5.53-3.37-4.42-2.69-8.84-5.38-13.25-8.08-2.13-1.31-4.27-2.6-6.4-3.9-1.12-.68-2.24-1.37-3.39-2.07-2.31-1.53-2.31-1.53-4.49-1.37m66.12 51.56c-5.18 4.07-10.49 7.7-16.17 11.06-.97.69-.97.69-1.95 1.38v2c-.7.25-1.4.5-2.12.75-3.28 1.42-6.02 3.12-8.88 5.25v2c-.72.28-1.45.57-2.2.86-.92.38-1.85.75-2.8 1.14-.82.31-1.64.63-2.49.95-3.12 1.7-4.61 3.01-6.51 6.05-1.03 6.09.03 12.45.67 18.54.37 3.83.6 7.66.81 11.5.07 1.38.15 2.75.23 4.12.11 2.04.23 4.08.34 6.12.11 1.91.23 3.82.35 5.74.07 1.1.14 2.21.21 3.35.15 2.78.15 2.78 2.39 4.63 7.02-11.02 13.92-22.11 20.7-33.28 3.5-5.76 7.01-11.52 10.56-17.25 1.1-1.79 2.21-3.59 3.31-5.39 2.17-3.54 4.33-6.95 6.83-10.27 5.23-6.95 5.1-12.36 4.06-20.7-.15-1.02-.3-2.05-.46-3.11-2.36 0-5.02 3.09-6.88 4.56M893 274c5.76 7.93 5.76 7.93 12.25 15.25 3.17 3.17 6.07 6.54 8.98 9.96.58.59 1.17 1.18 1.77 1.79h2c.33.81.33.81.68 1.64 1.74 3.11 4.07 5.54 6.51 8.11 1.01 1.08 2.01 2.16 3.02 3.25.49.52.97 1.04 1.47 1.57 1.59 1.72 3.11 3.47 4.63 5.24 3.97 4.59 8.17 8.97 12.34 13.39 4.73 5.05 9.15 10.29 13.46 15.7L962 352h2c-.06-.99-.11-1.98-.17-3-2.02-36.26-2.02-36.26-2.83-52-8.68-4.19-17.77-6.96-26.94-9.88-2.38-.76-4.76-1.52-7.15-2.29-1.58-.5-3.16-1.01-4.74-1.52-6.48-2.08-12.94-4.22-19.39-6.4-3.24-1.09-6.46-2.11-9.78-2.91m-2 8c2.33 12.43 5.05 24.73 8.08 37 1.58 6.39 3.11 12.78 4.51 19.21.73 3.36 1.49 6.71 2.24 10.06.36 1.62.7 3.24 1.04 4.86 2.24 10.64 5.56 19.57 10.98 29.01 2.2 3.83 3.95 7.79 5.65 11.86 2.35 5.54 4.94 10.84 7.81 16.12 3.55 6.53 6.72 13.17 9.75 19.94 3.73 8.32 7.63 16.51 11.77 24.63 2.48 4.88 4.91 9.79 7.36 14.69.99 1.98 1.98 3.97 2.98 5.96L971 491h1c.28-11.44-.24-22.74-1.08-34.16-.83-11.34-1.54-22.7-2.22-34.06l-.6-9.63c-1.08-17.48-1.08-17.48-1.48-25.5-.11-2.14-.23-4.28-.35-6.42q-.195-3.72-.36-7.44c-.37-6.38-1.19-10.54-4.91-15.79h-2c-.39-.86-.39-.86-.78-1.73-1.33-2.48-2.87-4.4-4.72-6.52-.61-.71-1.22-1.41-1.84-2.14-1.51-1.84-1.51-1.84-3.66-1.61-.33-.81-.33-.81-.66-1.63-1.8-3.18-4.22-5.67-6.72-8.31-.96-1.03-1.93-2.06-2.89-3.09-.47-.49-.93-.99-1.41-1.5-1.25-1.39-2.4-2.87-3.55-4.35-.58-.7-1.17-1.4-1.77-2.12h-2c-.22-.54-.45-1.08-.68-1.64-1.74-3.11-4.07-5.54-6.51-8.11-.99-1.07-1.99-2.14-2.98-3.21l-1.47-1.57c-3.64-3.93-7.16-7.96-10.48-12.16-1.86-2.37-1.86-2.37-4.13-4.56-3.19-3.19-6.12-6.55-9.08-9.96L892 282zm125 6c-.78 1.09-1.52 2.21-2.23 3.35-.47.74-.93 1.47-1.41 2.24-.77 1.22-.77 1.22-1.55 2.47-.53.85-1.06 1.7-1.61 2.57-4.7 7.51-9.31 15.08-13.9 22.65-4.57 7.54-9.2 15.05-13.86 22.54-.99 1.59-1.97 3.18-2.95 4.77a292 292 0 0 1-3.22 5.09c-.56.88-1.11 1.76-1.69 2.67-.51.8-1.02 1.59-1.55 2.41-1.18 2.57-1.15 3.63-.34 6.3.74 1.66 1.52 3.3 2.31 4.94.52 1.27 1.03 2.54 1.54 3.82 2.98 7.53 6.21 14.91 9.69 22.23 2.59 5.47 4.97 11.01 7.33 16.57 4.84 13.61 4.84 13.61 12.44 25.38 4.56-9.79 8.82-19.72 12.99-29.68.84-1.93 1.8-3.8 2.78-5.65 1.86-5.56 1.46-10.88 1.23-16.67-.06-1.73-.11-3.47-.17-5.2-.2-6.23-.45-12.45-.71-18.68-.06-1.67-.06-1.67-.13-3.37-.61-15.32-1.28-30.63-2.05-45.94l-.12-2.45-.36-6.84c-.06-1.27-.13-2.54-.19-3.84-.29-3.92-.75-7.78-1.27-11.68zm96.75 29.69c-5.7 2.21-11.41 4.22-17.25 6-5.24 1.6-10.4 3.29-15.5 5.31 4.14 2.13 8.41 3.81 12.75 5.5q1.155.465 2.34.93c4.92 1.93 9.76 3.39 14.91 4.57 1.59-2.66 3.17-5.33 4.75-8 .44-.74.89-1.49 1.34-2.25 2.86-4.83 5.46-9.71 7.91-14.75-4.31 0-7.33 1.12-11.25 2.69M1130 316c-.58 1.04-1.16 2.08-1.76 3.15-.79 1.41-1.58 2.82-2.36 4.23-.62 1.09-.62 1.09-1.24 2.2-2.77 4.93-5.64 9.8-8.64 14.6-1.16 1.77-1.16 1.77-1 3.82 1.78 1.61 1.78 1.61 4.06 3.25 3.06 2.3 6.01 4.64 8.88 7.19 2.65 2.77 2.65 2.77 5.06 2.56v2c1.78 1.65 1.78 1.65 4.06 3.31.82.62 1.63 1.24 2.48 1.88 2.13 1.57 4.29 3.1 6.46 4.62 3 2.19 3 2.19 4 4.19l2-1c-.91-2.65-1.83-5.29-2.75-7.94-.25-.73-.51-1.47-.77-2.23-1.34-3.84-2.78-7.57-4.46-11.28-2.15-4.73-3.85-9.57-5.52-14.49-2.33-6.76-4.71-13.47-7.5-20.06zm-60 17c-1.58 1.56-1.58 1.56-2.85 3.74-.51.81-1.03 1.62-1.56 2.45-.82 1.33-.82 1.33-1.65 2.69-.58.91-1.15 1.82-1.75 2.75q-2.61 4.17-5.19 8.37c-.47.77-.95 1.54-1.44 2.33-2.21 3.58-4.4 7.18-6.58 10.78-3.63 5.98-7.34 11.9-11.04 17.83-.66 1.05-1.31 2.1-1.99 3.18-4.68 7.47-4.68 7.47-6.95 10.88-.68 2.56-.68 2.56-1.12 5.38-.17.93-.34 1.87-.51 2.83-.35 2.64-.4 5.13-.37 7.79 11.34-1.92 22.61-4.09 33.86-6.48l7.41-1.56c3.89-.82 7.77-1.66 11.65-2.52 1.94-.41 3.89-.78 5.85-1.15 2.87-.58 5.52-1.17 8.23-2.29 1.83-2.51 1.83-2.51 2-6 .43-1.7.87-3.4 1.33-5.1.5-1.99.99-3.97 1.48-5.96.26-1.05.52-2.1.79-3.18.53-2.18 1.07-4.35 1.6-6.52.77-3.12 1.55-6.23 2.34-9.35.47-1.88.93-3.76 1.4-5.64.22-.87.44-1.75.67-2.65.2-.81.4-1.62.6-2.46.18-.71.36-1.41.54-2.14.29-2.35.16-3.81-.75-6a75 75 0 0 0-8.19-3.44c-.81-.3-1.61-.59-2.45-.9-1.65-.61-3.31-1.21-4.96-1.8-2.2-.79-4.39-1.6-6.57-2.42-6.74-2.61-6.74-2.61-13.83-3.44m42 17c-.24 1.14-.48 2.27-.73 3.45-1.57 7.24-3.16 14.44-5.27 21.55-1.77 5.98-3.17 11.98-4.43 18.08-.98 4.61-2.18 9.12-3.5 13.65-1.98 6.83-3.63 13.71-5.19 20.65-2.81 12.2-5.77 24.35-8.82 36.5-.21.84-.42 1.69-.64 2.56-1.06 4.23-2.13 8.46-3.19 12.69-1.17 4.61-2.32 9.22-3.47 13.83-.18.7-.35 1.41-.53 2.13-.85 3.37-1.68 6.73-2.52 10.1-1.43 5.71-2.86 11.43-4.35 17.13-.37 1.41-.37 1.41-.74 2.85-.44 1.7-.88 3.39-1.34 5.09-1.15 4.37-1.15 4.37-.28 8.74q6.405-2.175 12.81-4.38c1.82-.61 1.82-.61 3.68-1.24 1.17-.4 2.33-.8 3.53-1.22 1.07-.36 2.15-.73 3.25-1.11 3.82-1.47 5.42-2.37 7.16-6.14.49-1.28.97-2.56 1.45-3.85 2.05-5.48 4.33-10.81 6.78-16.13 5.47-11.94 10.87-23.95 15.65-36.18 2.17-5.55 4.59-10.92 7.13-16.31 1.77-3.9 3.39-7.85 5-11.82 2.42-5.96 5.01-11.78 7.79-17.59 3.13-6.64 5.85-13.45 8.57-20.27 1.68-4.18 3.41-8.28 5.47-12.3 1.88-3.11 1.88-3.11 1.73-5.46-1.73-1.61-3.54-3.14-5.38-4.62-.99-.82-1.99-1.64-3.02-2.48-2.33-2.1-2.33-2.1-4.6-1.9v-2c-1.81-1.64-1.81-1.64-4.12-3.31-2.85-2.14-5.63-4.29-8.32-6.63-2.27-2.27-2.27-2.27-4.56-2.06v-2c-2.09-1.8-4.18-3.47-6.38-5.12-.6-.47-1.2-.94-1.82-1.42-3.06-2.6-3.06-2.6-6.8-3.46m-236 18c1.55 3.09 3.12 5.82 5 8.7.58.88 1.16 1.76 1.75 2.66.6.91 1.2 1.83 1.81 2.76 1.19 1.82 2.38 3.63 3.57 5.45.53.8 1.05 1.6 1.59 2.43 1.28 2 1.28 2 2.28 4h2v2h2c.84-4.1 1.67-8.21 2.5-12.31.36-1.75.36-1.75.72-3.54.23-1.12.45-2.24.69-3.39.21-1.03.42-2.06.63-3.12.55-2.69.55-2.69.46-5.64zm30 6c-.27 1.19-.53 2.39-.8 3.62-.71 3.19-1.42 6.38-2.13 9.56-.17.8-.35 1.59-.53 2.41-.36 1.62-.75 3.23-1.15 4.84-1.49 5.79-1.49 5.79-.39 11.57 1.52 2.28 1.52 2.28 3.44 4.31.61.7 1.23 1.4 1.87 2.12 1.55 1.8 1.55 1.8 3.69 1.57.22.54.45 1.08.68 1.64 1.74 3.11 4.07 5.54 6.51 8.11 1 1.07 1.99 2.14 2.99 3.21.48.52.97 1.04 1.47 1.58 3.46 3.74 6.79 7.61 10.07 11.5 1.41 1.67 2.84 3.32 4.28 4.96h1c1.54-9.89-1.64-15.96-6.36-24.24-2.91-5.12-5.31-10.44-7.7-15.82-4.07-9.11-8.4-18.06-12.94-26.94-.67-1.33-1.34-2.67-2-4zm-97.03 1.8c-1.01.13-1.01.13-2.04.26l-4.26.54c-2.14.27-4.27.54-6.4.8-4.09.52-8.18 1.05-12.27 1.6-1.27.17-2.55.34-3.86.51-1.17.16-2.34.33-3.55.5-1.03.14-2.07.28-3.13.43-2.62.37-2.62.37-4.46 2.56 10.53 16.89 10.53 16.89 21.31 33.62.66 1.01 1.31 2.01 1.99 3.04 1.49 2.43 1.49 2.43 3.7 3.34l1.33-2.51c4.24-7.98 8.53-15.93 12.86-23.87.5-.91.99-1.82 1.51-2.77.48-.88.97-1.77 1.47-2.69l1.42-2.6c.95-1.73 1.91-3.44 2.89-5.15.68-1.21.68-1.21 1.38-2.45.41-.72.83-1.43 1.25-2.17 1.04-1.76 1.04-1.76.89-3.79-4.08-.1-7.98.3-12.03.8m19.03.2c-2.73 3.63-4.75 7.42-6.75 11.5-3.8 7.73-8.12 15.15-12.47 22.58-1.25 2.14-2.48 4.28-3.72 6.42-.39.66-.78 1.32-1.18 2-2.2 3.84-3.44 7.01-3.88 11.5 1.12.84 2.25 1.67 3.38 2.5q.93.69 1.89 1.41c1.67 1.27 1.67 1.27 3.73 1.09v2c1.58 1.25 1.58 1.25 3.69 2.5 4.45 2.87 8.61 6 12.79 9.25 7.4 5.74 14.97 11.25 22.53 16.78 1.39 1.03 2.76 2.08 4.12 3.16 1.76 1.5 1.76 1.5 3.87 1.31v2l3 1c7.7-10.64 15.38-21.3 23-32-2-3.44-4.14-6.66-6.56-9.81-.9-1.19-.9-1.19-1.82-2.4-.53-.59-1.07-1.18-1.62-1.79h-2l-3-6h-2c-.26-.56-.52-1.12-.78-1.7-1.36-2.57-2.95-4.75-4.72-7.05-.91-1.2-.91-1.2-1.84-2.42-.55-.61-1.1-1.21-1.66-1.83h-2c-.22-.52-.43-1.05-.65-1.59-1.89-3.38-4.37-6.12-6.91-9.03-5.32-6.14-5.32-6.14-6.44-8.38h-2c-.26-.56-.51-1.12-.78-1.7-1.37-2.58-2.98-4.75-4.78-7.05-.62-.8-1.24-1.6-1.88-2.42-.52-.61-1.03-1.21-1.56-1.83zm46 1v34c2.78-.95 5.57-1.9 8.44-2.88.88-.29 1.75-.59 2.66-.89.69-.24 1.37-.48 2.08-.72l2.15-.73c1.87-.66 1.87-.66 2.67-2.78-.7-1.04-1.4-2.07-2.12-3.14l-2.76-4.11c-.46-.68-.92-1.36-1.39-2.07-.44-.66-.89-1.32-1.35-2.01-.41-.61-.81-1.21-1.23-1.84-1.19-1.89-2.18-3.82-3.15-5.83h-2c-.43-1.18-.43-1.18-.88-2.38-.97-2.72-.97-2.72-3.12-4.62m98 4c-.25 12.9.54 25.69 1.38 38.56.13 2.2.27 4.4.41 6.6.4 6.28.8 12.56 1.21 18.84.05.82.11 1.63.16 2.47.59 9.18 1.21 18.36 1.84 27.53.09 1.35.19 2.7.28 4.05.57 8.32 1.14 16.63 1.72 24.95 7.03-2.62 7.03-2.62 13-7 1.61-3.75 2.17-7.54 2.75-11.56.38-2.25.77-4.5 1.15-6.75.18-1.12.36-2.24.55-3.4.95-5.65 2.18-11.23 3.38-16.83 1.54-7.5 1.76-13.05-1.58-20.15-.64-1.39-1.28-2.79-1.92-4.19-.36-.79-.73-1.58-1.1-2.39-2.52-5.6-4.89-11.27-7.29-16.92-3.43-8.07-6.94-16.08-10.65-24.03-1.5-3.23-2.91-6.49-4.29-9.78zm-206 9c-.06 1.28-.11 2.57-.17 3.89l-.63 14.61-.27 6.26c-.61 14.08-1.25 28.16-1.93 42.24 4.26-3.58 8.35-7.23 12.28-11.18.92-.93 1.85-1.86 2.8-2.81.95-.96 1.91-1.92 2.86-2.89.98-.98 1.96-1.96 2.94-2.95 2.37-2.39 4.75-4.78 7.12-7.17-1.29-4.02-2.55-7.53-5-11h-2l-.82-2.19c-2.01-4.78-4.88-9.04-7.62-13.43-.58-.96-1.17-1.91-1.77-2.9-.57-.91-1.14-1.83-1.72-2.77-.78-1.25-.78-1.25-1.57-2.52-1.36-1.99-2.78-3.52-4.5-5.19m315.1 18.32q-1.05.21-2.13.42c-2.3.46-4.6.92-6.91 1.38-1.17.24-1.17.24-2.36.48-14.62 2.92-29.17 6.08-43.7 9.4-1.82 5.81-2.86 11.62-3.81 17.62-.35 2.13-.69 4.26-1.04 6.38-.18 1.13-.36 2.25-.55 3.41-.64 3.81-1.3 7.6-1.97 11.4-.23 1.3-.46 2.6-.7 3.94-.44 2.54-.9 5.09-1.36 7.63-.2 1.16-.41 2.33-.62 3.53-.18 1.03-.36 2.07-.55 3.13-.41 3.02-.47 5.91-.4 8.96 10.2 5.14 10.2 5.14 21 5 1.73-2.37 3.22-4.66 4.69-7.19l2.67-4.41c.44-.74.88-1.48 1.34-2.25 1.88-3.11 3.83-6.16 5.8-9.21.37-.57.73-1.14 1.11-1.73 3.08-4.76 6.22-9.47 9.37-14.17 5.27-7.89 10.43-15.84 15.57-23.81 1.28-1.96 2.55-3.92 3.83-5.88.96-1.47.96-1.47 1.93-2.97.53-.82 1.07-1.64 1.62-2.48 1.23-1.83 1.23-1.83 1.07-3.9h2l3-6c-3.05 0-5.91.73-8.9 1.32m-191.99 2.43c-.93.36-1.87.72-2.84 1.09-.97.39-1.95.77-2.96 1.16-.99.38-1.97.76-2.99 1.16-2.44.94-4.88 1.89-7.32 2.84l1.72 2.53c1.56 2.33 2.98 4.69 4.36 7.13 4.87 8.1 9.37 12.54 18.64 15.03 3.58.87 7.17 1.6 10.78 2.31 1.85.42 3.7.84 5.55 1.27 8.51 2.38 8.51 2.38 16.95 1.73-2.39-2.94-4.75-5.75-7.44-8.44-2.6-2.6-4.91-5.34-7.23-8.2L915 429h-2c-.22-.53-.43-1.07-.65-1.62-1.85-3.26-4.35-5.81-6.91-8.5-5.32-5.64-5.32-5.64-6.44-7.88h-2v-2c-3.17 0-4.95.61-7.89 1.75M1018 422c-9.05 17.69-13.44 34.19-16.45 53.68-.48 2.88-1.07 5.67-1.76 8.51-.73 3.5-.79 4.61.21 7.81 3.87-1.25 6.34-2.91 9-6 2.52-6.48 3-13.72 3.88-20.56.26-1.87.53-3.74.81-5.6.67-4.66 1.3-9.31 1.92-13.97.67-4.93 1.38-9.85 2.09-14.77l.75-5.3c.18-1.25.36-2.51.55-3.8zm69 0c-.84 1.29-1.67 2.58-2.5 3.88-.46.71-.93 1.43-1.41 2.17-1.25 1.87-1.25 1.87-1.09 3.95h-2c-1.22 1.76-2.35 3.59-3.44 5.44l-2.16 3.6c-.58.97-.58.97-1.17 1.95-2.12 3.46-4.33 6.86-6.54 10.26-.46.7-.92 1.41-1.39 2.13-2.47 3.82-4.95 7.62-7.45 11.41-.51.78-1.02 1.56-1.54 2.36-.98 1.5-1.97 3-2.96 4.49-2.48 3.4-2.48 3.4-3.35 7.36h-2a98 98 0 0 0-3.62 6c-.64 1.11-1.27 2.23-1.92 3.38-.48.86-.96 1.73-1.46 2.62 2.7 3.5 6.03 4.08 10.19 5.19 2.27.6 4.54 1.21 6.81 1.81-.54 9.78-1.46 19.44-2.73 29.15-1.63 12.6-2.94 25.14-3.27 37.85 1.72-3.14 2.66-6.16 3.52-9.64.41-1.68.41-1.68.84-3.4.29-1.2.59-2.41.89-3.65.31-1.24.61-2.48.93-3.76 2.3-9.35 4.53-18.71 6.76-28.08 1.53-6.43 3.25-12.76 5.13-19.09 1.31-4.75 2.35-9.55 3.36-14.38 1.13-5.31 2.5-10.54 3.91-15.78 2.05-7.63 3.97-15.28 5.86-22.94.41-1.67.83-3.33 1.25-4.99.62-2.44 1.22-4.89 1.82-7.33q.285-1.11.57-2.25c1.2-4.89 1.2-4.89.16-9.71m-293 13-29 29c5.08 6.77 5.08 6.77 10.56 13.06 2.68 2.92 5.15 5.8 7.38 9.06L785 489h2c.22.52.43 1.05.65 1.59 1.89 3.38 4.37 6.12 6.91 9.03 5.32 6.14 5.32 6.14 6.44 8.38h2c.22.52.43 1.05.65 1.59 1.89 3.38 4.37 6.12 6.91 9.03 5.32 6.14 5.32 6.14 6.44 8.38h2c.27.58.54 1.16.82 1.75 1.18 2.24 2.48 4.17 3.99 6.19.48.65.96 1.29 1.46 1.96 1.76 2.2 1.76 2.2 4.07 4.44 2.98 2.98 5.7 6.12 8.41 9.35.74.87.74.87 1.5 1.76 3.62 4.29 3.62 4.29 4.75 6.55h2v2c1.48 1.5 1.48 1.5 3.44 3.06 4.15 3.51 7.92 7.29 11.68 11.22 1.7 1.95 1.7 1.95 3.88 1.72v2c1.68 1.74 1.68 1.74 3.81 3.5.71.61 1.42 1.22 2.15 1.84 2.14 1.8 2.14 1.8 5.04 3.66-1.58-5.61-4.27-10.34-7.12-15.38-3.51-6.26-6.91-12.54-10.07-19-2.46-5.02-5.06-9.91-7.87-14.74-2.7-4.64-5.21-9.31-7.56-14.13-1.96-3.99-3.97-7.85-6.32-11.63-2.55-4.13-4.73-8.38-6.87-12.74-3.12-6.35-6.46-12.52-9.97-18.65-2.78-4.88-5.3-9.84-7.77-14.89-1.5-2.94-3.13-5.76-4.83-8.59-3.3-5.55-6.18-11.26-8.96-17.08-1.6-3.74-1.6-3.74-4.66-6.17m12 7c1.37 4.63 3.29 8.47 5.75 12.62 2.6 4.44 5.06 8.88 7.31 13.5 1.95 3.99 4.04 7.82 6.32 11.63 2.61 4.41 4.99 8.9 7.24 13.5 6.74 13.71 14.09 27.16 21.76 40.37 3.13 5.43 5.94 10.98 8.7 16.61 2.59 5.17 5.46 10.18 8.29 15.22 2.89 5.17 5.59 10.4 8.18 15.73 2.16 4.21 4.59 8.26 7.03 12.32C888 596 888 596 889 599c2.55 1.69 2.55 1.69 5.56 3.19 1.01.53 2.03 1.06 3.07 1.6 1.17.6 1.17.6 2.37 1.21-1.86-6.53-4.6-12.4-7.67-18.43-2.71-5.31-5.3-10.67-7.83-16.07-4.03-8.57-8.23-17.05-12.5-25.5-4.46-8.82-8.82-17.66-12.99-26.62-1.68-3.62-3.41-7.21-5.22-10.76-.54-1.07-.54-1.07-1.1-2.16-.69-1.34-1.38-2.68-2.08-4.02-2.1-4.1-3.48-8-4.61-12.44h2c1.63-1.87 1.63-1.87 3.19-4.25.55-.79 1.1-1.58 1.67-2.39 1.31-2.24 1.31-2.24 1.06-4.45-1.2-2.48-2.63-3.56-4.86-5.16-.71-.52-1.42-1.04-2.15-1.58-1.82-1.34-1.82-1.34-3.91-1.17v-2c-1.71-1.41-1.71-1.41-4-2.88-4.78-3.24-9.4-6.64-14-10.12-8.99-8.22-8.99-8.22-19-13m95 5c4.66 5.03 10.05 9.05 15.5 13.19 1.41 1.08 1.41 1.08 2.84 2.19.91.69 1.82 1.39 2.75 2.1.83.63 1.65 1.26 2.49 1.9 2.41 1.61 4.7 2.65 7.42 3.62v2l9 6-2-22c-12.61-3.41-25.19-6.43-38-9m-10 1c.5 10.46 1.97 20.48 3.88 30.75.54 2.99 1.09 5.99 1.63 8.98.13.73.27 1.45.4 2.19.74 4.07 1.43 8.13 2.05 12.22.13.85.25 1.69.39 2.56.22 1.48.43 2.97.62 4.45.29 2.1.29 2.1 1.03 4.85 2.59 1.73 3.97 2.41 6.88 3.12.65.17 1.31.34 1.99.51 4.56.79 6.34.89 10.39-1.78 1.15-.92 2.3-1.85 3.43-2.79 6.21-5.01 6.21-5.01 8.31-6.06v-2c.71-.24 1.42-.47 2.14-.72 3.35-1.5 5.74-3.42 8.55-5.78.95-.79 1.9-1.59 2.88-2.41 2.41-2.02 2.41-2.02 4.43-4.09-1.29-1.01-2.58-2-3.88-3-.71-.56-1.43-1.11-2.17-1.69-1.84-1.5-1.84-1.5-3.95-1.31v-2c-2.11-1.65-4.23-3.18-6.44-4.69-1.28-.89-2.57-1.79-3.85-2.69-.64-.44-1.27-.88-1.92-1.34-3.14-2.24-6.13-4.66-9.12-7.1-1.6-1.37-1.6-1.37-3.67-1.18v-2c-1.35-1.27-1.35-1.27-3.14-2.5-.66-.47-1.32-.95-2-1.44l-2.11-1.5c-1.36-.98-2.72-1.95-4.08-2.93-.64-.46-1.28-.91-1.94-1.38-1.39-1-2.74-2.04-4.09-3.1-1.58-1.34-1.58-1.34-3.64-1.15v-2zm-8 1v2h-2c-1.61 2.1-1.61 2.1-3.31 4.88-3.62 5.57-7.41 10.99-11.31 16.37-.54.74-1.08 1.49-1.64 2.25-.79 1.09-.79 1.09-1.59 2.2-.77 1.07-.77 1.07-1.56 2.16a158 158 0 0 1-3.36 4.36c-.56.71-1.12 1.41-1.69 2.14-.51.63-1.02 1.26-1.55 1.9-.33.58-.65 1.15-.99 1.74.73 3.3.73 3.3 4.07 4.76 1.35.65 2.7 1.29 4.05 1.93 1.47.7 2.93 1.41 4.39 2.12.75.36 1.5.72 2.26 1.09 4.62 2.28 9.12 4.78 13.63 7.24 4.1 2.18 8.34 4.02 12.6 5.86-1.95-14.69-4.12-29.32-6.73-43.91l-.78-4.43c-.37-2.08-.74-4.15-1.12-6.23-.22-1.19-.43-2.39-.66-3.62-.48-2.92-.48-2.92-2.71-4.81m61 1 1 2Zm1 2c-.27 7.39.09 14.7.75 22.06.06.84.12 1.67.19 2.53.39 4.7.39 4.7 3.01 8.47 1.98 1.08 1.98 1.08 4.05.94v2c.95.64.95.64 1.93 1.29 2.7 2.23 2.78 3.62 3.27 7.05.15 1.06.31 2.13.48 3.22.14 1.12.29 2.23.44 3.38.32 2.17.63 4.35.95 6.52.15 1.08.3 2.15.45 3.25.74 5.11 1.61 10.2 2.48 15.29 3.07-3.6 5.32-7.17 7.38-11.44l1.64-3.31c1.62-5.39-1.15-9.76-3.52-14.64-.49-1.01-.98-2.02-1.49-3.06-.52-1.07-1.04-2.14-1.57-3.24-1.09-2.24-2.17-4.48-3.26-6.72-.53-1.11-1.07-2.22-1.63-3.37-2.57-5.33-5.09-10.68-7.61-16.03-2.24-4.76-4.57-9.48-6.94-14.19zm27 40 1 2Zm41 0c-1 2.29-2 4.58-3 6.88-.29.65-.57 1.3-.87 1.97-1.59 3.45-1.59 3.45-2.13 7.15 5.62 1.86 11.24 3.71 16.87 5.55 1.91.63 3.83 1.26 5.74 1.9 2.75.9 5.5 1.81 8.25 2.71.85.28 1.71.56 2.59.86 1.2.39 1.2.39 2.42.79.71.23 1.41.46 2.13.7 2.3.65 2.3.65 6 .49l2-17c-3.93-1.23-7.86-2.46-11.79-3.68-1.33-.42-2.66-.83-3.99-1.25-8.03-2.51-16.08-4.93-24.22-7.07m-18.12 9.44c-.66.42-1.32.84-2 1.27-1.65 1.07-3.27 2.18-4.88 3.29v1h13c2.29-4.81 2.29-4.81 3-10-3.51 0-6.26 2.57-9.12 4.44m-46.44-1.06c-.96.66-.96.66-1.94 1.33-.5.43-.99.85-1.5 1.29v2c-.74.26-1.47.53-2.23.8-2.76 1.2-4.76 2.53-7.13 4.39-.78.61-1.57 1.23-2.38 1.86-.81.65-1.62 1.29-2.45 1.95-1.23.96-1.23.96-2.48 1.95-4.31 3.36-4.31 3.36-8.33 7.05.12 2.57.37 4.99.73 7.53.1.75.19 1.51.3 2.29.31 2.4.64 4.79.97 7.18.19 1.46.39 2.92.58 4.38.58 4.4 1.18 8.79 1.8 13.18.1.78.21 1.55.32 2.35 1.64 11.75 3.43 23.46 5.46 35.15.91 5.27 1.66 10.54 2.35 15.84.16.69.32 1.39.49 2.1l2 1c4.24-20.09 8.47-40.19 12.62-60.3 1.59-7.74 3.21-15.47 4.82-23.21.19-.91.38-1.83.58-2.77.17-.8.33-1.59.5-2.41.16-.76.32-1.52.48-2.31.19-.85.37-1.7.57-2.57.6-3.38.31-6.51.05-9.93-.09-1.29-.18-2.58-.27-3.91-.29-2.93-.7-5.72-1.35-8.59-1.81 0-3.13 1.37-4.56 2.38M857 500c1.11 5.03 3.37 9.52 5.5 14.19.45.99.9 1.97 1.36 2.99 3.02 6.55 6.24 12.94 9.67 19.28 5.21 9.66 9.79 19.62 14.47 29.54 1.62 3.44 3.25 6.88 4.88 10.31.37.79.74 1.58 1.13 2.39 2.17 4.59 4.37 9.17 6.68 13.69 1.1 2.2 2.18 4.41 3.25 6.62l1.06 2.18c.69 1.42 1.38 2.85 2.06 4.28 3.05 6.22 6.7 9.59 12.56 13.34.97.63 1.93 1.25 2.92 1.9.81.42 1.62.85 2.46 1.29l2-1c-4.31-14.95-8.62-29.89-13.18-44.76-3.64-11.88-7.16-23.8-10.69-35.71-.45-1.49-.89-2.99-1.34-4.49-.92-3.08-1.82-6.16-2.65-9.27l-.73-2.71c-.19-.74-.38-1.48-.57-2.24-1.82-3.94-6.09-5.15-9.84-6.82-1.76-.94-3.53-1.88-5.28-2.84-5.79-3.15-11.65-6.18-17.53-9.16-1.14-.58-2.28-1.15-3.46-1.75-2.53-1.39-2.53-1.39-4.73-1.25m121 12c-1.26 2.5-2.52 4.99-3.81 7.56-.39.77-.78 1.55-1.19 2.34-2.16 4.31-4.15 8.65-6 13.1l3.37 1.76c1.5.79 3 1.58 4.51 2.36.77.41 1.55.82 2.35 1.24 5.06 2.68 9.99 5.51 14.79 8.64 2.21 1.3 2.21 1.3 5.98 1 .29-4.61.57-9.22.85-13.82l.3-4.7c.14-2.26.27-4.52.41-6.77l.14-2.11c.21-3.55.3-7.04.3-10.6zm28 2c-1.54 1.54-1.22 3.05-1.32 5.2l-.12 2.65-.12 2.84c-.04.94-.09 1.89-.13 2.86-.32 7.49-.42 14.96-.31 22.45 4.25-1.57 8.13-3.64 12.06-5.88l2.06-1.15c9.05-5.16 17.97-10.57 26.88-15.97-3.2-2.13-6.01-3.13-9.64-4.35-.65-.21-1.3-.43-1.97-.65-1.36-.46-2.73-.92-4.1-1.37-2.09-.69-4.17-1.39-6.25-2.09-1.33-.44-2.66-.88-4-1.33-1.2-.4-2.41-.8-3.65-1.21-3.15-.93-6.13-1.63-9.39-2m-103 8c4.82 17.06 9.77 34.06 15 51l1.32 4.31c.89 2.9 1.79 5.79 2.68 8.69h1c-.66-7.23-1.56-14.4-2.59-21.59-.16-1.07-.31-2.13-.46-3.23l-.96-6.7c-.49-3.43-.98-6.86-1.46-10.29-.31-2.17-.62-4.35-.94-6.53-.14-1.02-.29-2.05-.44-3.11-.2-1.42-.2-1.42-.41-2.87-.12-.83-.24-1.67-.36-2.53-.36-2.32-.36-2.32-1.38-5.15zm137.81 13.69c-7.88 4.82-15.9 9.36-23.95 13.88-.95.53-1.89 1.06-2.87 1.61-.84.47-1.68.94-2.55 1.43-2.5 1.43-4.97 2.9-7.44 4.39.33 10.1 1.68 19.89 3.34 29.85 1.42 8.55 2.7 17.12 3.91 25.71.18 1.24.35 2.48.53 3.75.41 2.9.82 5.79 1.22 8.69 4.9 1.45 7.44-.29 11.9-2.5 3.1-1.5 3.1-1.5 6.42-2.75 1.07-.43 2.14-.87 3.24-1.31.99-.38 1.99-.75 3.01-1.13 4.11-3.9 3.87-8.86 4.43-14.31.16-1.37.31-2.74.47-4.1.53-4.65 1-9.31 1.47-13.96.34-3.38.69-6.76 1.04-10.13.09-.84.17-1.67.26-2.53.54-5.19 1.1-10.37 1.69-15.56.14-1.23.28-2.46.42-3.73.26-2.26.52-4.53.79-6.79.54-4.76 1.02-9.4.86-14.2-3.2 0-5.54 2.04-8.19 3.69M957 535c-2.44 10.7-4.73 21.43-6.94 32.19-2.96 14.4-6.02 28.78-9.26 43.13q-.285 1.245-.57 2.52c-.35 1.56-.7 3.11-1.06 4.67-.66 2.9-1.17 5.5-1.17 8.49 7.22-.52 14.05-1.77 21.06-3.5.95-.23 1.9-.45 2.88-.68 4.37-.74 4.37-.74 8.06-2.82.07-10.24-1.41-20.26-3.2-30.32-1.26-7.16-2.34-14.33-3.33-21.52-.13-.95-.26-1.91-.4-2.88-.53-3.88-1.07-7.75-1.58-11.62-.37-2.74-.74-5.48-1.12-8.22-.11-.84-.22-1.67-.33-2.54-.28-1.98-.65-3.94-1.04-5.9zm131.21 1.97c-1.16.4-2.33.81-3.54 1.23-1.23.43-2.46.86-3.73 1.3-1.24.43-2.47.86-3.75 1.3-3.06 1.07-6.13 2.13-9.19 3.2l1 4h2c.24.55.47 1.11.71 1.68 1.6 2.88 3.61 5.03 5.85 7.44 4.34 4.69 4.34 4.69 5.44 6.88h2c.22.53.43 1.07.65 1.62 1.85 3.26 4.35 5.81 6.91 8.5 5.32 5.64 5.32 5.64 6.44 7.88h2c.27.64.54 1.28.81 1.94 1.08 2.39 1.08 2.39 4.19 3.06 2.56-.98 2.56-.98 5.19-2.44.9-.47 1.8-.94 2.73-1.43.69-.37 1.37-.75 2.08-1.13-1.28-4.95-2.94-9.18-5.31-13.75a316 316 0 0 1-7.36-15.3c-1.68-3.73-3.41-7.43-5.14-11.14-.32-.67-.63-1.34-.96-2.04-.74-1.59-1.48-3.18-2.23-4.77-2.26 0-4.7 1.24-6.79 1.97M966 541c.31 10.45 1.61 20.54 3.34 30.84 1.64 9.78 2.99 19.59 4.26 29.41.81 6.05 1.76 11.87 3.4 17.75 4.23 1.18 8.46 2.34 12.69 3.5 1.2.33 2.39.67 3.63 1.01 1.16.32 2.31.63 3.5.96l3.23.89c2.77.6 5.13.69 7.95.64-.94-6.81-1.88-13.62-2.83-20.43-.32-2.31-.64-4.62-.95-6.93-.91-6.56-1.83-13.12-2.79-19.68-.28-1.9-.54-3.79-.8-5.69-.33-2.39-.69-4.77-1.05-7.15-.28-1.94-.28-1.94-.57-3.93-1.64-5.17-5.57-7.1-10.12-9.63-.75-.42-1.51-.84-2.29-1.27-1.16-.64-1.16-.64-2.35-1.29l-2.3-1.29c-5.2-2.87-10.49-5.39-15.95-7.71m97 9c-3.4 12.04-6.65 24.1-9.7 36.23l-1.38 5.37c-.68 2.63-1.34 5.26-2.01 7.89-.2.8-.41 1.6-.63 2.42-.93 3.76-1.43 6.39-.28 10.09l2.54-1.21c7.65-3.63 15.36-7.09 23.15-10.41.89-.39 1.79-.77 2.71-1.17 3.84-1.64 7.69-3.26 11.57-4.79 1.08-.43 2.17-.85 3.28-1.3.91-.34 1.83-.69 2.77-1.05 2.33-.96 2.33-.96 2.98-4.07h-2c-.24-.55-.47-1.11-.71-1.68-1.6-2.88-3.61-5.03-5.85-7.44-4.34-4.69-4.34-4.69-5.44-6.88h-2c-.22-.54-.44-1.08-.67-1.63-1.78-3.16-4.16-5.63-6.64-8.25-.96-1.01-1.91-2.03-2.87-3.05-.46-.5-.93-1-1.41-1.51-1.46-1.61-2.83-3.26-4.2-4.94-1.1-1.3-1.1-1.3-2.21-2.62zm-12 19 1 3Zm-207 1c-2.16 7.97-4.3 15.92-6 24 7.03 1.52 14.1 2.4 21.25 3.12 1.28.14 1.28.14 2.58.27 4.75.46 9.4.7 14.17.61-1.28-1.71-2.62-3.37-4-5h-2v-2c-1.55-1.39-3.17-2.71-4.81-4-5.22-4.16-10.12-8.55-14.98-13.13-1.98-2.09-1.98-2.09-4.21-1.87v-2zM601 735c3.23 2.62 4.99 4.95 6 9-.18 9.81-4.18 20.19-10 28-2.06 1-2.06 1-4 1-1.49-.99-1.49-.99-3-2 .37-3.68 1.17-6.57 2.88-9.81 3.49-6.72 6.15-12.56 4.12-20.19-1.88-2.29-1.88-2.29-4.94-2.38-19.84.82-39.65 19.32-53.45 32.08-1.61 1.3-1.61 1.3-3.75 2.29-2.21.93-2.21.93-2.86 4.01a131 131 0 0 1-5 5c-9.17 8.92-9.17 8.92-17 19h-2c-.24.54-.49 1.08-.74 1.63-1.56 2.94-3.45 5.54-5.38 8.25-8.91 12.66-16.43 26.23-20.88 41.12l-1.19 3.69c-1.87 7.81-1.94 16.87 1.19 24.31 4.07 2.04 8.69.87 13 0 14.99-5.1 28.59-14.01 41.47-23.07C537 856 537 856 539 856v-2c1.9-1.51 1.9-1.51 4.38-3.12l2.46-1.64C548 848 548 848 550 848v-2c1.39-.97 2.79-1.94 4.22-2.85 3.11-2.01 6.02-4.29 8.97-6.53 1.41-1.06 2.82-2.12 4.24-3.18 2.34-1.76 4.67-3.52 7.01-5.28 2.47-1.88 4.95-3.74 7.44-5.6.75-.58 1.51-1.15 2.3-1.75 10.9-8.13 10.9-8.13 16.82-9.81 2.8.88 2.8.88 5 2l-1 7c.91-.61 1.81-1.23 2.75-1.86 10.31-6.89 19.03-11.96 31.82-9.68 2.16.47 4.29.97 6.43 1.54 1.05 3.23 1.19 4.59-.26 7.73-.61.95-1.23 1.91-1.86 2.89-4.34 7.04-8.49 14.14-9.88 22.38.83-.65.83-.65 1.68-1.31.72-.56 1.45-1.12 2.2-1.69.71-.56 1.43-1.11 2.17-1.69C642 837 642 837 644 837c.22-.53.43-1.07.65-1.62 1.85-3.26 4.35-5.81 6.91-8.5 3.63-3.64 3.63-3.64 6.44-7.88h2l1-3h2l1-3h2l.94-1.94C668 809 668 809 669 808c2.44-.19 2.44-.19 5 0l2 2c-.19 2.75-1.01 4.01-2.76 6.15-2.66 3.39-4.81 6.95-6.99 10.66-.41.7-.82 1.39-1.25 2.1-1 1.7-2 3.39-3 5.09 5.66 5.93 5.66 5.93 13 9 .09-.64.17-1.29.26-1.95 2.04-13.11 6.29-24.97 16.74-33.55 3.41-2.41 5.76-3.21 10-2.5l2 1c-.06 2.25-.06 2.25-1 5-1.69.93-3.39 1.85-5.1 2.74-7.76 5.14-10.21 15.94-12.9 24.26-.67 2-1.33 4-2 6 14.56-3.76 25.48-9.91 37.04-19.59C722 823 722 823 724.68 822c.77-.33 1.53-.66 2.32-1l1-3c4.46-4 4.46-4 7-4 .31-1.14.31-1.14.62-2.31 2.34-6.27 5.67-12.13 9.38-17.69l-109-1-2-4c3.19-2.12 4-2.25 7.65-2.28 1.43-.02 1.43-.02 2.89-.03 1.05 0 2.1-.01 3.17-.01 1.66-.01 1.66-.01 3.34-.03 3.66-.03 7.31-.05 10.96-.06l7.59-.06q8.97-.075 17.94-.12c6.81-.04 13.62-.09 20.43-.14q21.015-.15 42.03-.27c.34-.68.67-1.37 1.02-2.07l1.35-2.72c.44-.89.88-1.78 1.34-2.69 3.95-7.69 9.1-15.46 15.29-21.52 2.88-.44 2.88-.44 5 0 .79 2.05.79 2.05 1 5a68 68 0 0 1-4.62 7.25c-3.85 5.41-7.25 10.89-10.38 16.75.83.01 1.65.03 2.51.04 3.75.08 7.49.18 11.24.27 1.95.04 1.95.04 3.95.07 1.25.04 2.5.07 3.78.11 1.16.02 2.31.05 3.5.08 3.24.46 4.64 1.24 7.02 3.43l-1 3c-5.44 2.33-11.24 3.82-17 2l-1-1c-1.34-.16-2.69-.25-4.04-.32l-2.45-.12-2.57-.12c-1.28-.07-1.28-.07-2.59-.13-2.12-.11-4.23-.21-6.35-.31-.27.72-.55 1.44-.83 2.18-1.15 2.77-2.47 5.31-3.93 7.93-.54.97-1.08 1.95-1.63 2.95-.57 1.03-1.15 2.06-1.73 3.13-4.13 7.54-8.13 15.09-11.63 22.93-.32.72-.64 1.43-.98 2.17-1.69 3.89-2.77 7.5-3.27 11.71 12.62-1.8 24.01-9.2 34.74-15.75C768 829 768 829 770 829v-2c2.02-1.45 2.02-1.45 4.81-3.12 4.15-2.55 8.07-5.24 11.94-8.19 6.41-4.71 11.16-6.17 19.25-5.69l2 1v2h2c.37-.96.37-.96.75-1.94 1.25-2.06 1.25-2.06 3.19-2.94C816 808 816 808 819 810c-.56 4.23-1.98 6.86-4.44 10.31-.61.89-1.23 1.77-1.87 2.68-.56.66-1.11 1.33-1.69 2.01h-2c-.12.85-.25 1.69-.38 2.56-.64 3.57-1.62 6.96-2.62 10.44v2c10.53-.58 18.29-5.96 26.62-11.96 2.47-1.78 4.47-3.07 7.38-4.04v-2c.74-.55 1.48-1.1 2.24-1.67 3.28-2.77 4.95-5.83 6.88-9.58 4.33-8.04 9.29-15.51 14.59-22.93.9-1.27 1.79-2.55 2.66-3.84 1.16-1.69 2.39-3.34 3.63-4.98h2c.25-.56.5-1.11.75-1.69 1.48-2.73 3.18-4.99 5.25-7.31h2c.37-.87.37-.87.75-1.75 1.43-2.58 3.03-4.31 5.25-6.25h2v-2c3.28-3.29 6.19-4.91 10.81-5.44C902 755 902 755 904 757c0 7.34-3.02 12.01-7 18-.55.87-1.1 1.74-1.66 2.64-2.99 4.68-2.99 4.68-4.34 6.36h-2c-.27.8-.54 1.61-.81 2.44-.39.84-.79 1.69-1.19 2.56-1.49.5-1.49.5-3 1-.71 1.31-1.37 2.65-2 4-6.57 8.5-14.61 16.32-23 23h-2v2l-2.19 1.5c-6.7 5.96-8.83 15.03-10.81 23.5 7.82-2.88 14.51-6.39 21.31-11.23 2.52-1.66 4.86-2.77 7.69-3.77v-2c1.72-1.38 3.5-2.68 5.31-3.94 3.9-2.68 3.9-2.68 7.42-5.81C887 816 887 816 889 816v-2c3.23-2.15 4.28-2.2 8-2l2 4c-38.93 34.25-38.93 34.25-54.45 33.95-2.26-.18-4.37-.36-6.55-.95-1.17-2.34-1.13-3.77-1.12-6.38-.01-.77-.01-1.54-.01-2.33.13-2.22.52-4.16 1.13-6.29-.67.45-1.33.89-2.02 1.36-18.91 12.4-18.91 12.4-30.98 10.64-3.11-1.1-4.39-1.87-5.96-4.76-.76-1.71-1.41-3.47-2.04-5.24-.64.69-1.28 1.37-1.94 2.08-9.07 9.45-9.07 9.45-15.06 10.92-3.94-.31-3.94-.31-7-1v-2h-2l-1-9c-.96.59-1.91 1.18-2.89 1.79-21.62 13.26-21.62 13.26-33.61 13.52l-3.41.12c-3.09-.43-3.09-.43-5.47-2.15-1.86-2.62-2.13-3.85-2.06-7.03 0-1.2 0-1.2.01-2.42.59-3.88 1.97-7.19 3.43-10.83-.99.71-1.99 1.43-3.01 2.16-12.82 9.09-25.67 18.1-41.99 17.84l-2 5-8-1v-2l-3-1v-2c-.64-.27-1.28-.54-1.94-.81C664 847 664 847 663 844l-3-1-2-2c-.51 1.02-1.02 2.03-1.54 3.08L644 869c.83-.25 1.67-.51 2.53-.77 8.83-2.61 17.66-4.6 26.72-6.29l4.14-.78q5.805-1.095 11.61-2.16c.91-.17 1.82-.34 2.75-.51 13.66-2.52 27.45-4.03 41.25-5.49.74-.08 1.48-.17 2.24-.26 6.02-.66 11.96-.9 18.02-.91.94 0 1.89 0 2.87-.01 1.99 0 3.98-.01 5.97-.01 3 0 5.99-.02 8.99-.03 13.87-.05 27.88.04 41.16 4.53 1.2.39 2.4.78 3.64 1.18 3.49 1.69 5 3.29 7.11 6.51.88 2.63.88 2.63 1 5l-2 3-6-1c-.19-.93-.37-1.86-.56-2.81-1.17-3.4-1.17-3.4-4.32-4.94-48.01-16.83-114.17.56-161.97 11.87-1.04.25-2.08.49-3.15.74-.92.22-1.84.44-2.78.67-2.22.47-2.22.47-4.22.47-.25.67-.49 1.34-.75 2.03-1.53 3.63-3.38 7.04-5.31 10.47-.4.7-.79 1.4-1.19 2.12-14.79 25.86-14.79 25.86-27.25 30.76-4.9.87-8.82.18-13.5-1.38v-2l-3-1c-2.16-3.56-2.27-6.69-1.59-10.77 2.94-11.06 10.58-19.95 20.19-25.89 5.32-2.96 10.62-5.89 16.67-6.87 6.43-1.14 6.43-1.14 11.13-5.41 2.69-4.76 4.75-9.76 6.72-14.85 1.13-2.83 2.46-5.51 3.88-8.21-.8.5-1.61.99-2.44 1.5-4.37 1.84-7.88 2.26-12.56 1.5-2.56-1.38-2.56-1.38-4-4-1.49-7.83 1.15-13.36 5-20 1.11-2.04 2.21-4.08 3.31-6.12.9-1.63 1.79-3.26 2.69-4.88-7.1 1.26-12.7 3.53-19 7-.77.39-1.54.77-2.33 1.17-5.85 3.14-10.62 7.24-15.48 11.71-.64.57-1.27 1.15-1.93 1.74-3.82 3.62-6.6 7.18-9.1 11.83C588 849 588 849 584.69 849.5c-.89-.16-1.78-.33-2.69-.5l-2-4c.46-.63.92-1.26 1.39-1.91 3.73-5.2 6.92-10.28 9.61-16.09-2 1.41-4 2.83-6 4.25-.93.66-.93.66-1.87 1.33a447 447 0 0 0-10.55 7.76c-.72.54-1.45 1.09-2.19 1.66a431 431 0 0 0-4.23 3.24C561.22 849 561.22 849 559 849v2c-1.91 1.38-1.91 1.38-4.62 3-3.81 2.34-7.49 4.76-11.09 7.41-37.94 27.85-37.94 27.85-59.29 26.59-4.28-.79-7.21-2.23-10.38-5.31-5.46-9.05-4.67-19.97-2.39-29.95 3.17-12.57 8.5-23.48 14.77-34.74.53-.97 1.07-1.95 1.62-2.95.46-.68.91-1.35 1.38-2.05h2c.24-.7.48-1.4.72-2.12 1.51-3.39 3.46-6 5.72-8.94.78-1.02 1.56-2.05 2.37-3.1 1.08-1.41 1.08-1.41 2.19-2.84.55-.78 1.1-1.56 1.66-2.37.66-.81.66-.81 1.34-1.63h2c.27-.59.53-1.17.81-1.78 1.22-2.27 2.52-3.88 4.28-5.76.61-.66 1.23-1.32 1.86-2 .66-.68 1.31-1.37 1.99-2.08.67-.71 1.33-1.42 2.02-2.15 5.4-5.66 10.87-11.4 17.04-16.23h2v-2c1.68-1.51 1.68-1.51 3.88-3.12 1.07-.81 1.07-.81 2.17-1.64C545 754 545 754 547 754v-2l4-1v-2c2.54-2.03 5.4-3.63 8.19-5.31.81-.5 1.63-.99 2.47-1.5 11.88-7.06 25.99-14.24 39.34-7.19m290 32a139 139 0 0 0-5 5v2h-2c-1.83 2.13-3.55 4.27-5.25 6.5l-1.49 1.93c-.98 1.28-1.96 2.55-2.93 3.83q-1.68 2.19-3.39 4.38c-2.9 3.3-2.9 3.3-3.94 7.36h-2l-1 4c2.04-1.62 4.04-3.29 6-5v-2l3-1c3.64-3.48 3.64-3.48 5-8h2c1.56-2.05 3.01-4.1 4.44-6.25 4.99-7.41 4.99-7.41 7.56-10.75zm-95.19 51.81c-7.6 5.09-14.34 11.59-17.81 20.19.2 2.3.2 2.3 1 4 9.25-8.15 17.69-16.89 26-26-4.11-1.27-5.54-.52-9.19 1.81m-192.14 74.33c-5.17 5.49-8.87 11.24-10.17 18.74.33 2.31.33 2.31 2.5 3.93.66.39 1.32.79 2 1.19 4.54-1.91 4.54-1.91 9-4v-2h2c1.34-1.46 1.34-1.46 2.64-3.4.52-.73 1.03-1.46 1.56-2.2l1.61-2.34c.52-.73 1.05-1.47 1.58-2.23 4.56-6.52 8.94-13.29 11.61-20.83-8.2 0-18.62 7.91-24.33 13.14"/><path fill="#fff" d="M1011 66c1.96.21 3.92.42 5.87.62 61.87 6.64 123.53 24.32 178.43 53.89 3.46 1.86 6.95 3.6 10.47 5.31 6.56 3.27 12.77 7 18.98 10.87.57.35 1.13.7 1.71 1.06 8.72 5.39 17.26 10.99 25.63 16.92 2.13 1.48 4.28 2.93 6.43 4.38 1.13.75 1.13.75 2.27 1.52 1.44.98 2.89 1.94 4.34 2.9 1.66 1.13 3.27 2.32 4.87 3.53v2c.68.2 1.36.41 2.05.62 3.98 1.86 6.84 4.52 10.07 7.44 1.34 1.18 2.68 2.36 4.01 3.54.66.58 1.31 1.16 1.99 1.76 2.58 2.25 5.22 4.42 7.88 6.58.86.7 1.72 1.4 2.61 2.12.79.64 1.58 1.28 2.39 1.94 2.4 1.95 4.71 3.92 7 6v2l3 1v2c.56.24 1.12.47 1.7.72 2.83 1.57 4.78 3.5 7.07 5.78l2.69 2.69 2.79 2.81c.94.93 1.87 1.86 2.84 2.81.88.89 1.76 1.78 2.68 2.69.81.81 1.62 1.63 2.46 2.47C1335 226 1335 226 1335 228h2c1.41 1.4 1.41 1.4 3.06 3.38 2.76 3.24 5.57 6.42 8.44 9.56 3.33 3.69 6.46 7.46 9.46 11.43 1.67 2.16 3.38 4.28 5.11 6.39.54.67 1.08 1.33 1.65 2.02 1.09 1.34 2.18 2.67 3.28 3.99.5.62 1.01 1.24 1.52 1.87.46.55.91 1.1 1.38 1.67 1.22 1.88 1.68 3.5 2.1 5.69h2c1.49 1.92 1.49 1.92 3.31 4.75a689.796 689.796 0 0 1 3.36 5.19c1.47 2.27 2.95 4.53 4.43 6.78 6.17 9.4 12.22 18.84 17.89 28.55 1 1.71 2.01 3.4 3.02 5.1 4.78 8.13 8.86 16.48 12.83 25.04 1.83 3.91 3.75 7.75 5.72 11.59 4.27 8.48 7.89 17.2 11.44 26 .33.82.66 1.64 1 2.48 5.86 14.58 10.56 29.45 15 44.52.24.81.49 1.62.74 2.45 4.29 14.31 7.3 28.92 10.26 43.55.16.8.32 1.59.49 2.42 2 9.99 3.3 20.1 4.63 30.2.18 1.29.35 2.58.52 3.9.25 1.9.25 1.9.49 3.83.15 1.11.29 2.23.44 3.37 1.26 11.53 1.59 23.04 1.6 34.63 0 1.43 0 2.85.01 4.28 0 2.97.01 5.95.01 8.92 0 3 0 5.99.02 8.99.07 17.26-.18 34.29-2.21 51.46-.15 1.37-.3 2.75-.44 4.12-2.08 18.89-5.37 37.35-9.56 55.88-.22 1-.45 2-.68 3.02-4.58 20.38-10.74 40-18.07 59.54-.27.71-.53 1.42-.81 2.15-11.12 29.63-11.12 29.63-14.44 31.29-1.68-.28-3.35-.61-5-1 1.59-5.07 3.6-9.88 5.69-14.75 6.23-14.7 11.94-29.41 16.54-44.71.78-2.58 1.6-5.16 2.42-7.74 8.78-28.21 14.17-57.46 17.35-86.8.08-.73.17-1.47.25-2.22 1.43-12.7 2.19-25.32 2.44-38.09l.06-2.74c.55-26.83-.6-53.28-3.75-79.95-.11-.93-.21-1.87-.32-2.83-1.95-16.96-5.8-33.57-9.68-50.17-.24-1.04-.48-2.08-.73-3.15-5.64-23.94-13.79-47.27-23.02-70.04-.26-.65-.52-1.3-.79-1.96-3.73-9.19-7.95-18.03-12.46-26.85-.72-1.46-1.44-2.91-2.15-4.38a359 359 0 0 0-11.99-22.39 284 284 0 0 1-4.8-8.73c-8.05-14.81-17.98-28.88-27.95-42.44C1366 274 1366 274 1366 272h-2c-1.5-1.82-2.93-3.71-4.31-5.62-2.49-3.42-4.97-6.81-7.75-10C1350 254 1350 254 1350 252h-2c-1.56-1.69-3.05-3.46-4.5-5.25-.79-.97-1.59-1.95-2.41-2.95-2.09-2.8-2.09-2.8-3.18-5.1-.85-2.06-.85-2.06-3.91-2.7-1.54-1.57-1.54-1.57-3.19-3.56-3.23-3.83-6.68-7.32-10.31-10.78-1.5-1.66-1.5-1.66-1.5-3.66-.6-.27-1.19-.54-1.8-.81-2.21-1.19-3.6-2.37-5.33-4.16l-1.7-1.73c-.57-.59-1.14-1.19-1.73-1.8-1.15-1.18-2.29-2.36-3.44-3.53-.76-.78-.76-.78-1.53-1.58-1.63-1.62-1.63-1.62-4.47-3.39v-2c-.54-.24-1.08-.47-1.64-.72-2.99-1.62-5.47-3.63-8.11-5.78-1.48-1.19-1.48-1.19-2.98-2.41L1284 188v-2c-.58-.27-1.16-.55-1.76-.83-3.78-1.98-7.08-4.62-10.49-7.17-.75-.55-1.49-1.09-2.26-1.66-1.05-.79-1.05-.79-2.13-1.59-.65-.48-1.29-.96-1.95-1.45-.47-.43-.93-.86-1.41-1.3v-2c-.99-.32-.99-.32-2.01-.66-4-1.79-7.32-4.27-10.87-6.84-1.53-1.1-3.06-2.19-4.6-3.28-.76-.55-1.53-1.09-2.31-1.65C1179.65 111.73 1101.04 84.3 1023 74c-1.25-.17-2.5-.33-3.79-.5-40.06-5.04-82.19-4.77-122.21.5-1.3.17-2.6.33-3.93.5-28.26 3.69-56.29 9.8-83.39 18.63-2.84.92-5.69 1.81-8.55 2.69-9.59 2.97-18.94 6.1-28.13 10.18-1.5.63-3 1.26-4.51 1.89-35.92 15.03-69.81 33.06-101.37 55.88C658.39 170 658.39 170 656 170v2c-1.82 1.5-3.71 2.93-5.62 4.31-3.42 2.49-6.81 4.97-10 7.75C638 186 638 186 636 186v2c-1.69 1.56-3.46 3.05-5.25 4.5-.97.79-1.95 1.59-2.95 2.41-2.8 2.09-2.8 2.09-5.1 3.18-2.06.85-2.06.85-2.7 3.91-1.4 1.38-1.4 1.38-3.26 2.89-5.6 4.75-10.73 9.95-15.91 15.15-1.72 1.72-3.44 3.44-5.16 5.15-1.09 1.1-2.19 2.2-3.29 3.29-.76.77-.76.77-1.55 1.55-2.22 2.24-4.07 4.33-5.83 6.97h-2c-.36.81-.36.81-.72 1.64-1.62 2.99-3.63 5.47-5.78 8.11-.79.98-1.59 1.97-2.41 2.98-1.03 1.13-1.03 1.13-2.09 2.27h-2c-.27.58-.55 1.16-.83 1.76-1.98 3.78-4.62 7.08-7.17 10.49-.82 1.12-.82 1.12-1.66 2.26q-.78 1.05-1.59 2.13c-.48.65-.96 1.29-1.45 1.95-.43.47-.86.93-1.3 1.41h-2c-.31.98-.31.98-.62 1.98-1.92 4.2-4.62 7.65-7.38 11.33-5.71 7.76-10.92 15.71-15.92 23.94-1.57 2.55-3.2 5.05-4.83 7.56-5.73 9-10.47 18.5-15.19 28.05-1.3 2.62-2.61 5.22-3.96 7.81-6.45 12.45-11.78 25.37-17.1 38.33-.53 1.3-.53 1.3-1.08 2.62-4.25 10.44-7.89 21-11.14 31.79-.53 1.78-1.08 3.55-1.62 5.33-7.84 25.46-13.2 51.25-16.72 77.64-.12.86-.23 1.72-.35 2.6-.39 3.01-.74 6.01-1.09 9.02-.08.7-.16 1.4-.25 2.13-1.47 12.92-2.19 25.75-2.44 38.75l-.06 2.81c-1.38 68.65 8.9 138.88 36.45 202.22.32.75.64 1.5.96 2.27.43.97.43.97.86 1.96.61 2.38.47 3.61-.52 5.86-2.06 1.25-2.06 1.25-4 2-7.96-19.33-15.05-38.95-21-59-.2-.65-.39-1.3-.6-1.97-4.34-14.47-7.4-29.23-10.4-44.03-.16-.8-.32-1.59-.49-2.42-2-9.99-3.3-20.1-4.63-30.2-.18-1.29-.35-2.58-.52-3.9-.16-1.27-.33-2.53-.49-3.83-.15-1.11-.29-2.23-.44-3.37-1.26-11.53-1.59-23.04-1.6-34.63 0-1.43 0-2.85-.01-4.28 0-2.97-.01-5.95-.01-8.92 0-3 0-5.99-.02-8.99-.07-17.26.2-34.29 2.21-51.46.12-1.13.23-2.26.35-3.42C455.57 466.45 469.06 414.55 491 368c.39-.84.78-1.68 1.19-2.54 12.65-27.13 26.8-53.05 43.68-77.79q1.755-2.61 3.45-5.25c.37-.57.74-1.13 1.12-1.72.99-1.53 1.98-3.07 2.97-4.6q.78-1.035 1.59-2.1h2c.2-.67.41-1.34.62-2.02 1.89-4.07 4.58-7.18 7.44-10.6.59-.71 1.18-1.42 1.78-2.15 1.18-1.43 2.36-2.85 3.54-4.27 2.11-2.55 4.17-5.13 6.24-7.71 3.78-4.62 7.76-9.02 11.84-13.37 2.57-2.72 2.57-2.72 4.54-5.88h2l1-3h2c.25-.58.5-1.15.76-1.74 1.41-2.56 3.02-4.3 5.08-6.37.76-.75 1.51-1.51 2.28-2.28.79-.78 1.57-1.56 2.38-2.36.79-.79 1.57-1.59 2.38-2.4.75-.75 1.5-1.5 2.28-2.27.69-.69 1.37-1.38 2.08-2.08C607 204 607 204 609 204l1-3h2v-2c1.26-1.3 1.26-1.3 3.12-2.88.74-.62 1.47-1.24 2.22-1.88 1.32-1.11 1.32-1.11 2.66-2.24l3.16-2.74c6.09-5.3 12.26-10.49 18.59-15.51.6-.48 1.19-.96 1.81-1.45 4.2-3.3 4.2-3.3 6.44-3.3v-2c1.52-1.27 1.52-1.27 3.81-2.81.92-.63 1.84-1.25 2.78-1.89.54-.36 1.07-.72 1.62-1.09 1.99-1.35 3.97-2.73 5.95-4.1 11.69-8.14 23.65-15.74 35.84-23.11.77-.47 1.53-.93 2.32-1.41 9.99-6.06 20.13-11.57 30.68-16.59.84-.4 1.68-.81 2.54-1.22 30.99-14.84 63.77-27.52 97.28-35.27 2.04-.48 4.06-.99 6.09-1.52 21.81-5.7 43.84-9.22 66.24-11.58 2.35-.25 4.7-.51 7.05-.77 32.34-3.63 66.48-3.32 98.8.36"/><path fill="#fff" d="M1158.723 756.76c.75.08 1.5.16 2.28.24l2 4c-.4.54-.81 1.07-1.22 1.63-5.62 7.75-10.2 15.99-14.78 24.37l2.61-.03c3.2-.04 6.41-.06 9.61-.08 1.39-.01 2.77-.02 4.16-.04 1.99-.02 3.99-.04 5.98-.05 1.8-.01 1.8-.01 3.63-.03 3.01.23 3.01.23 6.01 2.23l-1 4q-2.595.795-5.19 1.56c-.96.29-1.93.58-2.92.88-3.04.59-4.94.44-7.89-.44l-1-1a68 68 0 0 0-4.26-.32 1614 1614 0 0 0-5.31-.24c-.9-.05-1.8-.09-2.73-.13-2.23-.11-4.47-.21-6.7-.31-.25.66-.5 1.32-.75 2-2.4 5.75-5.3 11.17-8.45 16.53-6.37 10.89-11.52 22.27-14.8 34.47 6.06-1.14 11.44-2.76 17-5.44.72-.34 1.45-.69 2.19-1.04 11.09-5.46 21.17-12.57 31.18-19.77 2.21-1.59 4.42-3.17 6.63-4.75l2.99-2.14c5.35-3.65 10.31-6.79 17.01-5.86 2.62 1.5 2.62 1.5 4 4-.08 4.53-.75 7.74-4 11h-2l-1 3c-6 5.42-12.15 8.39-20.25 8.11-.58-.04-1.16-.07-1.75-.11l-1 8c19.95-1.51 39.58-15.82 54.89-27.89 2.79-1.47 5.01-1.3 8.11-1.11 1 3 1 3-.44 6.19-.52.93-1.03 1.85-1.56 2.81h2v-2c21.15-12.51 21.15-12.51 31-11 2.56 1.5 2.56 1.5 4 3 .55-.54 1.11-1.07 1.68-1.62 1.15-.69 1.15-.69 2.32-1.38 2.75.81 2.75.81 5 2-.55 3.91-2.26 5.46-5.13 8.06-7.34 7.11-12.12 15.5-15.87 24.94 16.61-4.7 30.29-13.96 44.52-23.41 3.63-2.39 7.27-4.76 10.96-7.06 1.18-.74 1.18-.74 2.38-1.49 2.14-1.04 2.14-1.04 5.64-.91 1.23.43 1.23.43 2.5.87 2.32.19 2.32.19 5-2 2.68.2 4.49.7 6.81 2.06 1.92 3.13 1.26 6.32 1.19 9.94 10.55-3.69 10.55-3.69 20.68-8.37 3.17-1.56 4.86-2.06 8.32-1.63 1.07 3.88.94 5.52-1 9l2.49-1.61c19.65-12.52 19.65-12.52 29.51-10.39 2.25 1.53 2.25 1.53 4 3 .5-.43 1.01-.87 1.54-1.31 5.69-4.61 5.69-4.61 9.96-5.06 1.23.18 1.23.18 2.5.37 1.06 1.88 1.06 1.88 2 4-1 2-1 2-4.19 3.56-8.22 4.58-11.09 13.97-13.81 22.44-.59 1.73-1.17 3.46-1.75 5.19-.42 1.27-.84 2.54-1.25 3.81 16.47-4.01 29.29-12.35 41.99-23.42 2.01-1.58 2.01-1.58 4.01-1.58v-2c2.68-2.25 2.68-2.25 6-4 2.87.75 2.87.75 5 2-.96 7.02-8.94 11.37-14.11 15.46-6.54 4.95-13.43 9.15-20.64 13.04-.77.42-1.54.84-2.33 1.28-7.04 3.67-13.97 5.38-21.92 5.22l-2 5c-5.63.25-5.63.25-9-2v-2c-.87-.37-.87-.37-1.75-.75-2.58-1.43-4.31-3.03-6.25-5.25v-2h-2c-2.75-2.95-3-3.77-3-8 2.5-.44 2.5-.44 6 0 2.23 1.64 4.18 3.43 6.16 5.37 1.84 1.85 1.84 1.85 4.84 2.63.23-.79.23-.79.47-1.6 5.53-18.61 5.53-18.61 10.53-26.4-6.02-.44-9.66.81-14.82 3.56-.69.36-1.39.73-2.11 1.1-8.41 4.45-15.44 9.54-22.07 16.34h-2v2h-2l-.69 1.56c-3.7 6.87-3.7 6.87-6.31 9.44-3.32.44-3.32.44-6 0-.77-2.07-.77-2.07-1-5 1.32-2.48 2.63-4.61 4.25-6.87 3.19-4.58 5.7-8.92 7.75-14.13-.68.28-1.36.55-2.06.84-5.77 2.25-10.74 3.61-16.95 3.69-.66.16-1.31.31-1.99.47-1.18 1.8-1.18 1.8-2 4-3.11 4.66-6.29 8.86-11 12h-2v2c-4.78 2.81-9.61 2.64-15 2-2.69-1.5-2.69-1.5-4-4-.49-5.16-.07-8.24 2-13-.89.56-1.77 1.11-2.69 1.69-6.99 4.33-14.05 8.31-21.5 11.81-.72.34-1.44.68-2.18 1.02-5.08 2.34-9.12 3.63-14.7 3.67-.85.01-1.71.03-2.59.04-2.34-.23-2.34-.23-5.34-2.23-1.73-4.06-.66-7.36.78-11.33 3.39-7.44 8.01-14.38 13.22-20.67-15.42 1.53-30.58 13.1-41 24-1.88 2.66-3.61 5.32-5.24 8.13-1.76 1.87-1.76 1.87-4.97 2.15-1.38-.14-1.38-.14-2.79-.28-.75-1.59-.75-1.59-1-4 1.23-2.33 2.46-4.4 3.93-6.56 3.1-4.33 3.1-4.33 4.07-9.44l-2.61 1.76c-11.5 7.64-23.78 15.43-37.96 15.68l-3.87.12c-4.5-.71-5.89-1.93-8.56-5.56-.82-3.31-.82-3.31-1-6-.91.57-1.82 1.14-2.76 1.72-27.44 16.94-27.44 16.94-43.24 15.28-3.38-1.87-3.38-1.87-5-5-.47-6.44 1.51-12.16 4-18-.61.4-1.22.8-1.85 1.22-5.7 3.69-11.49 7.18-17.4 10.53-.99.56-.99.56-2.01 1.14-12.62 7.08-12.62 7.08-17.74 6.11-3.01-2.09-3.88-3.63-5-7.12 0-7.74 4.06-14.41 8-20.88-1.63 1.43-3.26 2.87-4.88 4.31-.9.8-1.81 1.6-2.74 2.43-2.52 2.22-2.52 2.22-4.38 5.26h-2l-.7 1.58c-1.75 3.26-3.9 6.16-6.12 9.11q-.63.885-1.29 1.8c-1.98 2.63-3.42 4.33-6.53 5.53-2.36-.02-2.36-.02-5.36-2.02 1.45-9.96 8.57-19.06 14.13-27.19 2.19-3.29 4.1-6.68 5.96-10.17.91-1.64.91-1.64 1.91-2.64 2.33-.04 4.66-.04 7 0l1 4-3 1v3c.5-.35 1.01-.7 1.54-1.06 4.08-2.7 7.41-4.82 12.46-4.94l3 2c0 8.31-3.39 14.35-7.19 21.52-1.85 3.33-1.85 3.33-2.81 6.48 5.68-1.56 10.37-4.35 15.37-7.37.88-.53 1.75-1.06 2.65-1.6 18.24-11.07 18.24-11.07 31.04-27.53 3.74-7.2 3.74-7.2 5.94-10.5-10.58-.31-21.16-.52-31.74-.59-4.92-.04-9.83-.11-14.75-.27-22.35-1.92-22.35-1.92-42.08 5.92-3.21 3.85-5.41 7.92-7.34 12.52-1.76 3.9-4.3 7.19-6.84 10.61-.41.59-.82 1.18-1.24 1.79-.95 1.38-1.97 2.7-3.01 4.02h-2c-.29.76-.58 1.53-.88 2.31-1.12 2.69-1.12 2.69-3.12 5.69h-2c-.35 1.05-.35 1.05-.71 2.11-1.54 3.44-3.64 6.17-5.98 9.08-4.31 5.47-8.39 11.05-12.31 16.81q2.28.045 4.56.06l2.57.04c2.93-.05 2.93-.05 6.08-.59 5.9-.79 11.81-.73 17.75-.75 2.2-.01 4.4-.04 6.59-.07 8.52-.06 16.27.71 24.45 3.31v2h2l1 3c-2.87 3.47-4.12 4.91-8.69 5.38-3.31-.38-3.31-.38-5.31-1.38l1-5c-31.69-2.64-31.69-2.64-61 5-.77 1.05-1.53 2.1-2.32 3.19-.88.93-1.77 1.85-2.68 2.81-3.82-.12-3.82-.12-7-1v-4c-31.9 6.4-31.9 6.4-61 20-2.69-.37-2.69-.37-5-1l-1-5c8.89-4.31 17.79-7.9 27.18-11 .96-.32.96-.32 1.94-.64 33.69-11.15 33.69-11.15 45.88-10.36l2-5h2c.21-.67.42-1.34.64-2.02 1.83-4.01 4.39-7.16 7.11-10.6 1.17-1.52 2.35-3.03 3.52-4.55.61-.79 1.22-1.57 1.85-2.39 3.14-4.08 6.2-8.23 9.25-12.38.59-.8 1.18-1.6 1.79-2.42 3.65-4.97 7.2-9.98 10.6-15.12.41-.5.82-1 1.24-1.52h2c.23-.69.47-1.39.71-2.11 1.53-3.44 3.62-6.25 5.91-9.2 1.45-1.88 2.89-3.76 4.38-5.69l-16-1c-.5-1.98-.5-1.98-1-4 2.56-2.56 3.66-2.3 7.22-2.41l3.13-.12 3.27-.09 3.3-.12c2.69-.1 5.38-.18 8.08-.26.43-1.16.43-1.16.88-2.34 1.32-3.14 3.04-5.26 5.24-7.85 3.81-4.52 7.47-9.12 11.05-13.81 1.87-2.05 3.23-3.06 5.83-4 2.75.38 2.75.38 5 1-.53 3.79-1.38 6.17-4 9h-2l-.94 1.88c-.69 1.37-1.38 2.75-2.06 4.12h-2c-.27.57-.53 1.14-.81 1.73-1.25 2.38-2.69 4.39-4.32 6.52-.54.71-1.08 1.41-1.63 2.14-.41.53-.82 1.06-1.24 1.61 10.35.47 20.7.82 31.06 1.04 4.81.1 9.62.24 14.42.47 19.9 1.93 19.9 1.93 38.36-3.39 4.24-4.59 6.25-9.65 8.14-15.52 1.91-4.89 5.1-11.34 10.74-11.84m25.9 60.43c-.95.78-1.91 1.55-2.9 2.35-2.57 2.32-4.65 4.69-6.72 7.46 6.47-2.32 12.09-6.28 16.06-11.94l.94-2.06c-3.25 0-4.93 2.17-7.38 4.19m130.13 1.75c-5.4 5.54-11.61 12.84-11.88 20.81.04 1.07.08 2.15.13 3.25 3.59-1.71 7-3.35 10-6v-2h2c2.94-2.65 5.2-5.47 7-9 .01-3.6-.77-6.64-2-10-2.75 0-3.32 1.02-5.25 2.94M1279 977c-4.62 4.88-4.62 4.88-8 6v2c-5.41 4-5.41 4-8 4v2c-1.74 1.3-3.55 2.51-5.38 3.69-3.82 2.46-7.58 4.97-11.29 7.61-5.63 3.96-11.42 7.62-17.27 11.26-1 .64-2.01 1.27-3.05 1.92-6.55 4.09-13.19 7.9-20.01 11.52-.81.44-1.63.87-2.46 1.32-2.35 1.26-4.69 2.5-7.04 3.74-1.15.61-1.15.61-2.32 1.24-5.95 3.15-12.02 5.97-18.18 8.7-.92.41-1.85.83-2.8 1.25-20.44 9.08-20.44 9.08-30.97 12.62-2.71.95-5.36 1.98-8.02 3.06-84.02 33.86-181.57 37.57-361-4.59-3.09-1.29-6.18-2.57-9.28-3.84-2.02-.83-4.04-1.67-6.05-2.5-1.01-.41-2.02-.83-3.06-1.25-6.42-2.66-12.63-5.58-18.82-8.75-1.3-.64-2.61-1.28-3.91-1.92-8.3-4.08-16.41-8.42-24.44-13.01-2.93-1.68-5.9-3.26-8.9-4.82-11.75-6.37-22.97-14.11-33.83-21.89-1.81-1.29-3.67-2.48-5.54-3.67-.79-.56-1.57-1.12-2.38-1.69v-2c-1.14-.43-1.14-.43-2.31-.88C652 987 652 987 649 985v-2c-.78-.27-1.57-.54-2.38-.81C644 981 644 981 642 978c1.6-.05 3.21-.09 4.81-.12.9-.03 1.79-.05 2.71-.08 2.48.2 2.48.2 5.48 2.2v2q1.065.375 2.16.75c3.17 1.39 5.5 3.12 8.22 5.25 13.77 10.56 28.62 19.31 43.62 28 .74.43 1.48.86 2.24 1.31 9.92 5.8 20.09 10.85 30.53 15.66 2.04.94 4.07 1.9 6.1 2.87a430 430 0 0 0 47.72 19.34c2.29.78 4.58 1.58 6.86 2.38 11.09 3.85 22.33 6.9 33.72 9.73 2.64.66 5.27 1.34 7.91 2.02 19.89 5.05 40.21 8.22 60.61 10.44 1.06.12 2.12.23 3.21.35 16.36 1.66 32.71 2.07 49.14 2.03 2.96 0 5.91 0 8.87.01 16.76 0 33.37-.65 50.03-2.52 1.19-.13 2.39-.26 3.62-.4 22.71-2.56 45.24-6.34 67.26-12.61 2.64-.74 5.29-1.45 7.95-2.17 58.65-15.93 116.77-42.97 165.11-80.13C1263 982 1263 982 1265 982v-2c4.37-3.67 8.6-3.32 14-3"/><path fill="#fff" d="M1134.79 756.383c2.34 2.49 3.19 4.43 3.65 7.8-.44 2.82-.44 2.82-2.44 5.82-2.5.31-2.5.31-5 0-2-2-2-2-2.12-5.63l.12-3.37c-10.27-5.03-20.97-5.36-32.25-5.32-.67.01-1.33.01-2.02.01-37.1.17-77.93 4.83-113.03 17.39-2.7.92-2.7.92-4.7.92v2c-5.75.12-5.75.12-8-1 .19-2.35.19-2.35 1-5 29.91-20.13 134.5-37.03 164.79-13.62M1165 931c13.47-.37 13.47-.37 15.89 1.34 1.72 2.58 1.99 4.57 2.11 7.66-1.44 3.38-1.44 3.38-3 6h-3v2h2v2l3 1v2h2v3c-3.28.37-4.59.32-7.24-1.75l-2.07-2.25c-.7-.74-1.4-1.49-2.12-2.25-.52-.58-1.03-1.15-1.57-1.75l-1 7-5 1zm5 3v11l8-3v-6c-2.91-1.26-4.8-2-8-2M934 931c2.21-.06 4.41-.12 6.69-.19l3.76-.1c3.79.31 5.56 1 8.55 3.29 2.5 3.58 3 5.61 3 10-.79 4.4-2.68 6.97-6 10-5.7 2.41-9.45 2-16 2zm4 3v17c6.42.37 6.42.37 10-1v-2h2c1.55-3.09 1.29-5.59 1-9-1.31-2.56-1.31-2.56-4-4-3.03-.62-5.89-.82-9-1M1076 931c4.79 1.2 6.07 3.24 8.75 7.06.41.57.82 1.14 1.25 1.72 1.01 1.4 2 2.81 3 4.22l1-13h4v25c-4.25-2.12-6.09-4.39-8.75-8.12-.62-.85-.62-.85-1.25-1.71l-3-4.17-1 14h-4zM1061 931l-1 4c-.9-.07-.9-.07-1.83-.14-5.11-.28-5.11-.28-9.67 1.76-1.84 2.93-2.36 4.93-2.5 8.38.83 2.8.83 2.8 2 5l10 1v-5h-5v-4h9v12c-4.24 2.12-7.38 2.72-12 2-4.36-2.22-7.13-4.44-9-9-.72-6.37.18-9.84 4-15 4.7-3 10.84-2.72 16-1M973.941 929.902l3.62.04 3.63.02c.93.01 1.85.03 2.81.04l1 4h-10v6h8v5h-8v6h10l-1 5h-14c-.03-4.15-.05-8.29-.06-12.44l-.03-3.59c0-1.12-.01-2.25-.01-3.41 0-1.04-.01-2.08-.01-3.15.16-3.56.44-3.39 4.05-3.51M1302 931h18c-3.57 6.71-7.56 12.82-12 19l11 1v5h-20c1.71-4.28 3.44-7.36 6-11.12 1.05-1.56 1.05-1.56 2.12-3.14.62-.9 1.24-1.81 1.88-2.74l2-3-9-1zM754 931h19c-4.26 6.72-8.56 13.4-13 20h11v5h-19c.88-3.51 1.58-5.2 3.5-8.11.5-.75.99-1.51 1.5-2.28.77-1.17.77-1.17 1.56-2.36.78-1.19.78-1.19 1.58-2.4 1.28-1.95 2.57-3.9 3.86-5.85h-10zM612 931h18c-4.75 8.62-4.75 8.62-7 12h-2c-.31.78-.62 1.57-.94 2.38C619 948 619 948 618 950l11 1v5h-20c1.39-3.47 2.38-5.82 4.38-8.77.45-.66.89-1.32 1.35-2s.92-1.35 1.39-2.04c.47-.7.94-1.39 1.42-2.1 1.15-1.7 2.3-3.4 3.46-5.09l-9-1zM642 931h5l1 20h6c1.98-2.96 2.26-3.68 2.41-7.01l.12-2.3c.05-1.18.05-1.18.09-2.38l.12-2.41c.1-1.97.18-3.93.26-5.9h4c.15 3.23.23 6.46.31 9.69.04.91.09 1.82.13 2.76.08 4.62.09 6.83-2.71 10.66-3.33 2.3-4.89 2.63-8.8 2.39-3.28-.85-4.9-2.91-6.93-5.5-1.15-2.3-1.12-3.58-1.1-6.13.01-.81.01-1.61.01-2.44l.03-2.55c0-.85.01-1.7.01-2.58.01-2.1.03-4.2.05-6.3M792 931h4c1.68 4 3.34 8 5 12 .4.96.81 1.93 1.22 2.92.36.87.72 1.74 1.09 2.64.33.79.65 1.57.99 2.38.7 2.06.7 2.06.7 5.06h-5l-2-7h-9c-.14.78-.29 1.57-.44 2.38C788 954 788 954 787 956h-4c.64-5.49 2.47-10.23 4.5-15.31.48-1.24.48-1.24.97-2.5 2.39-6.05 2.39-6.05 3.53-7.19m1 7-1 7h5l-3-7zM683 931c2.39.28 2.39.28 5 1 1.33 2.67 2.29 5 3.19 7.81.49 1.45.98 2.89 1.48 4.33.22.68.45 1.36.68 2.06.65 1.92.65 1.92 1.83 4.06.82 1.74.82 1.74.82 5.74h-4c-1.46-2.65-2-3.89-2-7l-9 1-2 6h-5c.61-3.49 1.52-6.59 2.85-9.86.53-1.33.53-1.33 1.08-2.69l1.13-2.76c.38-.93.76-1.87 1.15-2.82q1.38-3.435 2.79-6.87m2 8-2 6h5l-2-6zM1401.941 929.902l3.62.04 3.63.02c.93.01 1.85.03 2.81.04v4h-10v6h9l1 5h-10v6h10v5h-14c-.03-4.15-.05-8.29-.06-12.44l-.03-3.59c0-1.12-.01-2.25-.01-3.41 0-1.04-.01-2.08-.01-3.15.16-3.56.44-3.39 4.05-3.51M1231 931h4c.2.52.4 1.05.61 1.59.92 2.39 1.84 4.77 2.77 7.16.31.83.63 1.65.96 2.5.46 1.2.46 1.2.93 2.42.29.74.57 1.47.86 2.22.84 2.14.84 2.14 1.98 4.19.89 1.92.89 1.92.89 4.92-2.38-.19-2.38-.19-5-1-1.31-2.56-1.31-2.56-2-5l-9-1-1 6-5 1c.64-5.49 2.47-10.23 4.5-15.31.48-1.24.48-1.24.97-2.5 2.39-6.05 2.39-6.05 3.53-7.19m1 8-2 6h5c-.34-2.47-.34-2.47-1-5zM1339 931l5 1c1.39 2.1 1.39 2.1 2.46 4.84.58 1.47.58 1.47 1.18 2.97l1.17 3.13c.41 1.03.82 2.05 1.23 3.11 2.96 7.57 2.96 7.57 2.96 9.95h-5c-1.46-2.65-2-3.89-2-7h-9c-.99 3.47-.99 3.47-2 7l-5-1zm2 7-2 7h5l-2-7zM1197 930h13l1 4h-10v6h9v5h-9v6h10v5h-14zM851 930h13l1 4h-10v6h8l1 5h-9v6h10v5h-14zM1384 931l-1 4h-11v2h-2c-.08 1.42-.14 2.83-.19 4.25-.03.79-.07 1.58-.1 2.39.37 3 1.1 4.28 3.29 6.36 2.51.48 2.51.48 5.19.25 1.35-.05 1.35-.05 2.73-.11.69-.05 1.37-.09 2.08-.14l2 4c-3.72 2.48-7.68 2.67-12 2-4.89-2.4-7.19-4.86-9-10-.54-4.28-.31-6.4 1.69-10.25 5.17-6.15 10.65-7.3 18.31-4.75M834 930l2 1-1 4c-1.22-.1-2.43-.21-3.69-.31-3.45.02-4.27.29-7.31 2.31-2.69 4.03-2.4 6.24-2 11h2l1 2h10l2 4c-4.03 2.69-7.26 2.93-12 2-3.38-2.04-6.22-4.44-8-8-.12-1.81-.18-3.62-.19-5.44-.01-.97-.03-1.93-.04-2.93C817 937 817 937 819 934h2v-2c4.51-2.25 8.06-2.24 13-2M559 931h5c.35.93.7 1.85 1.06 2.81.45 1.2.91 2.39 1.38 3.63.68 1.79.68 1.79 1.37 3.62.9 2.78.9 2.78 2.19 3.94l5-14h5c-1.67 5.9-3.5 11.75-5.44 17.56l-1.18 3.63C572 955 572 955 569.84 955.9l-1.84.1c-2.28-5.65-4.53-11.32-6.75-17-.43-1.09-.86-2.19-1.3-3.31C559 933 559 933 559 931M1257 930c1.98.5 1.98.5 4 1v20h10v5h-15c-.03-4.15-.05-8.29-.06-12.44l-.03-3.59c0-1.12 0-2.24-.01-3.4 0-1.05-.01-2.09-.01-3.16.11-2.41.11-2.41 1.11-3.41M1008 931l-1 4h-5c.58 3.41 1.67 4.92 4.12 7.31 2.52 2.83 2.86 3.46 3.19 7.44-1.31 3.25-1.31 3.25-4.56 5.19-3.19.9-5.48 1.36-8.75 1.06v-5c3.96-.5 3.96-.5 8-1v-4l-3-1v-2l-4-2c-.48-6.4-.48-6.4 1.56-8.94 3.24-1.41 5.95-1.26 9.44-1.06M709 930h4v21h10v5h-14zM1283 930h4v26h-4zM1023 930l4 1v25h-4zM736 930h3v26h-4c-.03-4.15-.05-8.29-.06-12.44l-.03-3.59c0-1.12 0-2.24-.01-3.4 0-1.05-.01-2.09-.01-3.16C735 931 735 931 736 930M593 930l4 1v25h-4zM1284.5 794.125c.83.29 1.65.58 2.5.88-.33 1.64-.66 3.29-1 5-.99.33-1.98.65-3 1v2c-2.64.33-5.28.65-8 1-.66-1.33-1.32-2.64-2-4 6.9-6.04 6.9-6.04 11.5-5.88M1123 943h13v5h-13zM892 943h13v5h-13z"/></svg>