<svg xmlns="http://www.w3.org/2000/svg" version="1.1" xmlns:xlink="http://www.w3.org/1999/xlink" width="91" height="102"><svg width="91" height="102" viewBox="0 0 91 102" fill="none" xmlns="http://www.w3.org/2000/svg">
<path d="M28.9 54.6999C12.43 41.9599 1.43 22.4999 0 0.429932V101.94C3.06 82.5899 13.76 65.7899 28.9 54.6999Z" fill="#B11CAB"></path>
<path d="M52.8902 43.19C56.2402 42.29 59.6902 41.62 63.2202 41.21C73.0202 39.55 80.4902 31.03 80.4902 20.76C80.4902 9.30001 71.2002 0.0100098 59.7402 0.0100098C59.6502 0.0100098 59.5702 0.0100098 59.4802 0.0100098H16.2202C35.4002 6.15001 49.8902 22.8 52.8902 43.19Z" fill="#0071CE"></path>
<path d="M28.9 54.7C36.02 49.49 44.13 45.54 52.89 43.19C49.88 22.8 35.4 6.15 16.21 0H0V0.42C1.43 22.49 12.43 41.95 28.9 54.69" fill="#773DBD"></path>
<path d="M51.2001 66.55C46.1801 83.21 33.2801 96.46 16.8301 101.95H59.4801C59.5701 101.95 59.6501 101.95 59.7401 101.95C76.5701 101.95 90.2201 88.31 90.2201 71.47C90.2201 70.53 90.1801 69.59 90.0901 68.67C85.0901 69.72 79.9101 70.28 74.6001 70.28C66.4301 70.28 58.5701 68.96 51.2101 66.54" fill="#FFCD00"></path>
<path d="M51.2 66.55C43.06 63.87 35.54 59.83 28.9 54.7C13.76 65.79 3.06 82.59 0 101.94H16.82C33.27 96.45 46.18 83.21 51.19 66.54" fill="#73308A"></path>
<path d="M63.2202 41.21C59.6902 41.62 56.2402 42.29 52.8902 43.19C53.2702 45.77 53.4702 48.4 53.4702 51.08C53.4702 56.46 52.6702 61.65 51.2002 66.55C58.5602 68.97 66.4202 70.29 74.5902 70.29C79.9002 70.29 85.0802 69.73 90.0802 68.68C88.7702 54.32 77.5002 42.84 63.2302 41.21" fill="#2ED9C3"></path>
<path d="M51.1999 66.5499C52.6699 61.6499 53.4699 56.4599 53.4699 51.0799C53.4699 48.3999 53.2699 45.7699 52.8899 43.1899C44.1299 45.5399 36.0299 49.4899 28.8999 54.6999C35.5399 59.8299 43.0599 63.8699 51.1999 66.5499Z" fill="#410099"></path>
</svg><style>@media (prefers-color-scheme: light) { :root { filter: none; } }
@media (prefers-color-scheme: dark) { :root { filter: none; } }
</style></svg>