<svg width="429" height="513" viewBox="0 0 429 513" fill="none" xmlns="http://www.w3.org/2000/svg">
<path d="M365.68 62.8841C335.735 32.8707 297.554 12.4232 255.975 4.1331C214.397 -4.15699 171.293 0.0836182 132.127 16.3175C92.9614 32.5513 59.4969 60.0475 35.9751 95.321C12.4533 130.595 -0.0667304 172.057 0.00179129 214.454C-0.113675 242.599 5.35416 270.487 16.0888 296.504C26.8235 322.521 42.6117 346.151 62.5398 366.025L205.149 508.634C206.326 509.811 207.723 510.745 209.26 511.381C210.798 512.018 212.446 512.346 214.11 512.346C215.774 512.346 217.422 512.018 218.96 511.381C220.497 510.745 221.894 509.811 223.071 508.634L365.68 366.025C405.734 325.749 428.218 271.257 428.218 214.455C428.218 157.653 405.734 103.16 365.68 62.8841ZM214.11 350.252C138.5 350.252 76.9868 288.738 76.9868 213.128C76.9868 137.518 138.5 76.0041 214.11 76.0041C289.72 76.0041 351.234 137.517 351.234 213.128C351.234 288.739 289.72 350.252 214.11 350.252Z" fill="white"/>
<path d="M199.702 215.996C170.3 193.253 150.663 158.513 148.11 119.114V300.328C153.573 265.785 172.674 235.794 199.702 215.996Z" fill="#B11CAB"/>
<path d="M242.529 195.448C248.509 193.842 254.668 192.646 260.97 191.914C278.464 188.95 291.8 173.741 291.8 155.407C291.8 134.948 275.215 118.364 254.757 118.364C254.597 118.364 254.454 118.364 254.293 118.364H177.066C211.306 129.325 237.173 159.048 242.529 195.448Z" fill="#0071CE"/>
<path d="M199.702 215.996C212.412 206.695 226.89 199.644 242.528 195.448C237.155 159.048 211.305 129.325 177.048 118.346H148.11V119.096C150.663 158.495 170.3 193.235 199.702 215.978" fill="#773DBD"/>
<path d="M239.512 237.151C230.55 266.892 207.521 290.546 178.155 300.346H254.293C254.454 300.346 254.596 300.346 254.757 300.346C284.802 300.346 309.17 275.996 309.17 245.934C309.17 244.256 309.098 242.578 308.937 240.935C300.012 242.81 290.764 243.809 281.285 243.809C266.7 243.809 252.668 241.453 239.529 237.133" fill="#FFCD00"/>
<path d="M239.511 237.15C224.98 232.366 211.555 225.154 199.702 215.996C172.674 235.793 153.573 265.784 148.11 300.328H178.137C207.503 290.527 230.55 266.891 239.494 237.132" fill="#73308A"/>
<path d="M260.97 191.914C254.668 192.646 248.509 193.842 242.529 195.448C243.207 200.054 243.564 204.749 243.564 209.533C243.564 219.138 242.136 228.403 239.512 237.15C252.651 241.47 266.682 243.827 281.267 243.827C290.747 243.827 299.994 242.827 308.92 240.953C306.581 215.317 286.462 194.823 260.987 191.914" fill="#2ED9C3"/>
<path d="M239.511 237.15C242.135 228.403 243.563 219.138 243.563 209.533C243.563 204.749 243.206 200.054 242.528 195.448C226.89 199.643 212.43 206.695 199.701 215.996C211.555 225.154 224.979 232.366 239.511 237.15Z" fill="#410099"/>
</svg>
